<?xml version="1.0" encoding="UTF-8"?>
<svg id="Layer_2" data-name="Layer 2" xmlns="http://www.w3.org/2000/svg" viewBox="0 0 787.47 373.99">
  <defs>
    <style>
      .cls-1 {
        letter-spacing: .03em;
      }

      .cls-2 {
        letter-spacing: .04em;
      }

      .cls-3 {
        letter-spacing: .04em;
      }

      .cls-4 {
        letter-spacing: -.01em;
      }

      .cls-5 {
        font-size: 29.29px;
      }

      .cls-5, .cls-6, .cls-7 {
        fill: #0c442e;
      }

      .cls-5, .cls-7 {
        font-family: AngleciaProDisplay-Regular, 'Anglecia Pro Display';
      }

      .cls-8 {
        letter-spacing: .46em;
      }

      .cls-6 {
        stroke-width: 0px;
      }

      .cls-9 {
        letter-spacing: .46em;
      }

      .cls-10 {
        letter-spacing: .46em;
      }

      .cls-11 {
        letter-spacing: .48em;
      }

      .cls-7 {
        font-size: 98.66px;
      }

      .cls-12 {
        letter-spacing: .52em;
      }

      .cls-13 {
        letter-spacing: .52em;
      }
    </style>
  </defs>
  <g id="Layer_1-2" data-name="Layer 1">
    <g>
      <text class="cls-7" transform="translate(0 291.78)"><tspan class="cls-3" x="0" y="0">L</tspan><tspan class="cls-4" x="61.86" y="0">A</tspan><tspan class="cls-2" x="135.16" y="0">URA &amp; H</tspan><tspan class="cls-1" x="560.66" y="0">U</tspan><tspan class="cls-3" x="634.06" y="0">GO</tspan></text>
      <text class="cls-5" transform="translate(130.46 366.67)"><tspan class="cls-13" x="0" y="0">2</tspan><tspan class="cls-11" x="30.7" y="0">3</tspan><tspan class="cls-13" x="62.12" y="0">/N</tspan><tspan class="cls-8" x="123.07" y="0">O</tspan><tspan class="cls-13" x="159.19" y="0">VEMB</tspan><tspan class="cls-10" x="306.46" y="0">R</tspan><tspan class="cls-9" x="339.35" y="0">O</tspan><tspan class="cls-12" x="375.34" y="0">/2024</tspan></text>
      <path class="cls-6" d="M396.39,129.08c4.54,5.3,8.56,10.8,12,16.46,0,0,0,0,0,0-6.62-3.32-13.46-6.24-20.37-8.7-8.1-7.5-19.17-11.65-29.62-11.13l-1.75.09,1.33,1.14c1.67,1.44,3.69,2.78,6.34,4.19,7.32,3.9,15.41,6.38,23.42,7.16l.26.03c7.36,2.64,14.64,5.81,21.65,9.42l.02-.05c1.1,1.89,2.14,3.8,3.11,5.72h0c.45,5.74.43,11.39-.08,16.91l1.4.13c.41-4.49.51-9.06.29-13.68,2.31,4.98,4.17,10.05,5.58,15.15l1.35-.38c-1.73-6.26-4.13-12.46-7.17-18.52-.97-11.95-3.96-24.24-8.91-36.43,0,0,0,0,0,0l6.02-25.59c.06,0,.13,0,.19,0l-.05-.61.13-.54-.07-.02c2.62-2.91,4.7-6.45,6.03-10.26,1.9-5.48,2.47-11.91,1.8-20.23l-.19-2.4-5.1,9.67c-.97,1.83-1.97,3.73-2.63,5.8-.85,2.69-1.1,5.54-1.33,8.29-.23,2.68-.46,5.46-.1,9.07l.05.53-5.67,24.08s0,0,0,0c-1.06-2.51-2.21-5.01-3.45-7.51-1.53-3.1-3.19-6.2-4.8-9.19-.99-1.86-2-3.74-2.99-5.65l.12-.17-.32-.22c-.26-.49-.5-.98-.76-1.47.21-1.59.3-3.21.25-4.83-.12-4.4-1.15-9.05-3.21-14.34,1.13-3.25,2.34-6.48,3.61-9.64.19-.02.38-.12.51-.28.21-.25.24-.62.09-.95h0c4.43-2.78,8.1-7,10.35-11.93,2.3-5.04,3.18-10.94,2.48-16.62l-.18-1.47-1.02,1.07c-3.7,3.85-6.49,7.52-8.54,11.2-2.53,4.54-3.99,9.2-4.34,13.85-.01.12,0,.23.01.34.04.29.11.97-.12,3.06l-.02.24c-.13.12-.25.29-.35.54-1.14,2.83-2.24,5.7-3.27,8.61-.44-1.06-.93-2.14-1.45-3.25l-1.03-2.18-1.05,8.37c-2.44-8.72-3.56-17.81-3.24-26.77h-.24c5.52-8.29,5.64-19.53,5.01-29.45-.29-4.5-.7-9.27-2.32-13.78l-.71-1.99-.62,2.02c-2.02,6.62-4.12,13.47-5.13,20.55-1.15,7.99-.73,15.24,1.26,21.53.36,1.16.77,1.72,1.33,1.83-.26,9.92,1.19,19.98,4.23,29.51h0c-.22,1.76-.39,3.56-.29,5.4.1,1.84.47,3.66.92,5.44.18.7.37,1.4.56,2.09h0c.07.23.14.46.2.69.73,2.59,1.5,5.27,3.12,8.52l.23.46,3.02,23.06.19,1.48c-1.16-1.22-2.35-2.42-3.58-3.61-.76-.74-1.52-1.47-2.3-2.2-1.95-1.82-3.96-3.6-5.96-5.35-.59-.52-1.19-1.04-1.78-1.55-1.13-.99-2.27-1.98-3.41-3-.46-.41-.93-.82-1.39-1.22l.05-.21-.38-.09c-2.72-2.45-5.41-4.98-7.91-7.66-.99-1.06-1.96-2.15-2.89-3.26l.35-.02c-.35-5.77-.46-11.61-.34-17.36.18-.09.32-.24.38-.44.07-.21.05-.43-.05-.63-.04-.1-.11-.19-.19-.28h0c.26-.34.5-.68.74-1.03,1-1.45,1.85-3.02,2.55-4.67.2-.47.39-.95.56-1.44.89-2.45,1.44-5.04,1.61-7.68.37-5.52-.89-11.35-3.55-16.42l-.69-1.31-.58,1.36c-2.1,4.91-3.41,9.33-4.03,13.5-.25,1.74-.39,3.44-.41,5.11-.01.53,0,1.06.01,1.58.09,2.71.5,5.31,1.23,7.8,0,.01,0,.02.01.04.04.1.08.19.12.28.11.22.35.68.73,2.03.08.26.16.55.24.87l.06.23c-.08.16-.13.36-.14.63-.13,5.45-.05,10.99.25,16.48-6.57-8.1-11.72-17.39-15.02-27.18l-.23.08c2.24-9.7-1.63-20.26-5.72-29.32-1.86-4.11-3.93-8.43-7.04-12.07l-1.37-1.61.14,2.11c.45,6.91.91,14.06,2.46,21.04,1.75,7.89,4.71,14.51,8.79,19.7.75.95,1.33,1.33,1.88,1.23,4.04,11.63,10.64,22.55,19.12,31.6,1.94,2.08,3.99,4.07,6.08,5.99l-20.29-5c-3.72-3.92-8.56-6.83-13.63-8.21-5.12-1.4-10.6-1.27-15.45.36l-1.36.46,1.2.79c4.46,2.94,8.48,5.04,12.32,6.42,4.74,1.7,9.29,2.34,13.5,1.91.12-.01.22-.05.33-.08.23-.08.75-.25,2.41-.38l20.6,5.08,2.54.63c.53.48,1.07.95,1.61,1.42,1.09.97,2.19,1.93,3.28,2.88,2.55,2.23,5.19,4.53,7.7,6.87,2.52,2.35,4.93,4.76,7.21,7.23.44.46.87.94,1.3,1.41h0M348.11,99.27l-.11.45c-.57.09-.85.19-1.02.24-.02,0-.04.01-.05.02-4.01.41-8.34-.21-12.88-1.83-3.36-1.2-6.89-2.99-10.76-5.45,4.22-1.12,8.85-1.1,13.2.09,4.23,1.16,8.3,3.43,11.62,6.49ZM345.14,65.34c-.1-.11-.21-.23-.34-.4-3.95-5.02-6.82-11.45-8.52-19.13-1.36-6.12-1.87-12.42-2.28-18.56,2.26,3.11,3.92,6.61,5.44,9.98,3.95,8.75,7.69,18.91,5.7,28.12ZM362.5,73.95s-.02,0-.02-.01c-.33-1.08-.55-1.51-.68-1.76-.02-.04-.04-.07-.04-.08-.62-2.11-1-4.32-1.13-6.6-.04-.55-.06-1.1-.06-1.66-.02-1.84.11-3.72.4-5.64.53-3.64,1.63-7.49,3.34-11.72,2.07,4.5,3.03,9.52,2.71,14.3-.15,2.3-.6,4.56-1.33,6.71-.16.48-.33.96-.52,1.43-.71,1.78-1.61,3.48-2.68,5.03ZM362.12,76.79l.35-.45.06.49c-.14.04-.29.02-.41-.04ZM380.37,44.17c-.05-.13-.12-.29-.18-.49-1.93-6.09-2.33-13.13-1.21-20.91.89-6.21,2.64-12.28,4.43-18.17,1.01,3.71,1.33,7.57,1.56,11.26.6,9.58.52,20.4-4.6,28.31ZM393.55,58.38c.07-1.16.02-1.64-.01-1.91,0-.05-.01-.08-.01-.09.34-4.44,1.74-8.91,4.17-13.27,1.79-3.22,4.17-6.43,7.27-9.79.35,4.94-.53,9.98-2.52,14.33-1.98,4.35-5.11,8.11-8.9,10.73ZM392.58,61.07c-.15-.01-.28-.08-.38-.18l.5-.31-.12.49ZM411.21,88.02c-.15-2.72.04-4.97.23-7.17.23-2.68.46-5.45,1.27-7.98.62-1.96,1.59-3.79,2.53-5.58l2.82-5.34c.36,6.95-.25,12.45-1.89,17.19-1.13,3.25-2.83,6.29-4.96,8.88ZM360.4,127.09c8.91.05,18.11,3.54,25.28,9.57-7.1-.97-14.21-3.29-20.69-6.75-1.81-.96-3.31-1.88-4.59-2.82ZM390.95,87.81c-.04.79-.12,1.59-.22,2.37-.01.09-.02.17-.04.26h0c-.06.43-.13.85-.21,1.27-.25,1.28-.58,2.53-.99,3.75-.93-2.12-1.53-4.02-2.05-5.84-.09-.32-.18-.63-.27-.95-.11-.39-.22-.78-.33-1.17-.62-2.22-1.19-4.49-1.3-6.74-.04-.69-.04-1.37,0-2.05h0c.05-1.15.18-2.28.32-3.4h0c.03-.23.05-.44.08-.66l.75-6c.36.82.69,1.62,1,2.4.28.7.54,1.4.77,2.08,1.61,4.48,2.42,8.48,2.52,12.28.02.8.01,1.6-.04,2.4h0ZM412.43,149.75c-2.66-4.9-5.74-9.7-9.22-14.37-1.84-2.48-3.79-4.92-5.86-7.32-.93-1.09-1.9-2.17-2.88-3.25-.16-.3-.33-.6-.5-.89l-3.36-25.66c.06-.02.12-.04.18-.06l-.26-.56-.08-.55h-.08c.57-1.44,1.02-2.96,1.36-4.51l.08.06h0c1,1.94,2.03,3.85,3.04,5.74,1.6,2.98,3.25,6.06,4.77,9.15,5.57,11.28,9.45,22.74,11.57,34.04h0c.15.83.3,1.66.43,2.48.32,1.91.59,3.82.8,5.71Z"/>
    </g>
  </g>
</svg>