<?xml version="1.0" encoding="UTF-8"?>
<svg id="Layer_2" data-name="Layer 2" xmlns="http://www.w3.org/2000/svg" viewBox="0 0 330.6 321">
  <defs>
    <style>
      .cls-1 {
        fill-rule: evenodd;
      }

      .cls-1, .cls-2, .cls-3, .cls-4, .cls-5 {
        fill: #0c442e;
      }

      .cls-1, .cls-5 {
        stroke-width: 0px;
      }

      .cls-2 {
        font-size: 64.36px;
      }

      .cls-2, .cls-3, .cls-4 {
        font-family: AngleciaProDisplay-Regular, 'Anglecia Pro Display';
      }

      .cls-3 {
        font-size: 111.91px;
      }

      .cls-4 {
        font-size: 111.6px;
      }
    </style>
  </defs>
  <g id="Layer_1-2" data-name="Layer 1">
    <path class="cls-1" d="M12.57,166.4c3.7.84,5.94,7.19,6.7,10.4.77,2.86.77,5.87.84,8.87-.07,1.47-.14,3-.35,4.47-.14,1.54-.28,3-.56,4.47,2.09,9.01,4.96,17.81,8.52,26.32-.07-5.1.77-10.12,3.28-14.24.98-1.54,2.72-3.91,4.89-5.45,2.16-1.54,4.47-2.3,6.49-.7,1.96,1.47,2.09,3.98,1.82,6.63-.35,2.58-1.4,5.45-2.23,7.33-2.37,5.31-6.63,10.06-10.47,14.59,4.12,8.52,9.01,16.62,14.66,24.23-.63-2.51-1.05-5.03-1.12-7.47-.07-2.44.28-4.89,1.05-7.12.49-1.68,1.68-4.4,3.49-6.42,1.68-2.03,3.84-3.28,6.07-2.23,2.23.98,3.07,3.35,3.28,6.07.35,2.58,0,5.59-.42,7.61-1.19,5.8-4.05,11.24-6.84,16.69,6.01,7.26,12.71,13.97,19.97,20.04-2.51-4.4-3.84-9.43-3.56-14.1.14-1.75.7-4.75,1.96-7.12,1.19-2.37,3-4.05,5.38-3.56,2.37.56,3.84,2.51,4.68,5.1.77,2.58,1.26,5.45,1.33,7.47.14,6.01-1.33,11.87-2.79,17.88,7.61,5.66,15.64,10.68,24.02,14.94-1.75-1.82-3.14-3.98-4.33-6.14-.56-1.05-1.12-2.16-1.47-3.28-.42-1.19-.7-2.37-.91-3.56-.21-1.75-.42-4.75.21-7.33.63-2.51,1.96-4.68,4.54-4.75,2.44-.07,4.19,1.75,5.66,3.91,1.47,2.23,2.44,5.17,3,7.05,1.61,5.66,1.4,11.94,1.4,17.95,6.63,3,13.55,5.38,20.53,7.4.84.21,1.33,1.05,1.12,1.89h0c-.21.91-1.12,1.4-1.96,1.12-7.19-2.03-14.31-4.47-21.16-7.54-4.54,4.19-9.5,7.96-15.99,9.57-2.16.56-5.45.84-8.66.35-3.21-.35-6.14-1.75-7.68-4.19-1.61-2.72,0-4.82,2.37-6.42,2.44-1.54,5.59-2.58,7.4-3,1.12-.28,2.16-.49,3.28-.56,1.12-.14,2.23-.28,3.35-.35,2.3-.14,4.54,0,6.77.21-8.24-4.26-16.13-9.29-23.6-14.87-5.31,2.93-11.17,5.73-17.74,5.66-2.23,0-5.59-.35-8.52-1.61-2.93-1.26-5.73-3.07-6.49-5.87-.98-3.07,1.12-4.75,3.77-5.66,2.72-.98,6.01-1.19,7.96-1.26,4.47-.07,8.8,1.05,13.2,2.37-7.05-6.07-13.69-12.71-19.62-19.83-5.8,1.54-12.15,2.93-18.57,1.33-2.16-.49-5.24-1.68-7.89-3.49-2.58-1.89-4.82-4.4-5.03-7.26-.14-3.21,2.23-4.4,5.03-4.68,2.86-.28,6.21.21,8.03.63,2.16.49,4.26,1.26,6.21,2.23,2.09.91,4.12,1.96,6.01,3.21-5.45-7.54-10.33-15.57-14.38-23.95-6.14.28-12.36,0-18.43-2.93-1.96-1.05-4.68-2.93-6.84-5.31-2.09-2.44-3.56-5.38-3.14-8.17.49-3.14,3.14-3.77,5.94-3.42,2.86.42,6.01,1.61,7.68,2.51,3.91,1.96,7.54,4.82,10.68,8.1-3.49-8.31-6.14-16.9-8.24-25.7-4.33-4.96-8.52-10.96-9.29-18.02-.14-1.82.07-4.82.84-7.26.84-2.44,2.44-4.26,4.89-3.77h0ZM26.82,227.64c-1.47-1.75-3-3.35-4.61-4.89-1.61-1.61-3.28-3.07-5.1-4.4-2.44-1.82-5.17-3.42-7.96-4.19-2.72-.7-8.03-1.33-5.45,3.7,1.12,2.16,2.72,3.84,4.47,5.24,1.82,1.33,3.77,2.3,5.87,3,4.19,1.33,8.8,1.54,12.78,1.54h0ZM46.79,260.04c-1.75-1.33-3.7-2.51-5.59-3.7-1.89-1.19-3.91-2.23-6.01-3.07-2.79-1.19-5.8-2.09-8.73-2.16-2.79-.07-8.1.49-4.4,4.75,3.14,3.77,7.61,5.24,11.94,5.66,4.4.35,8.94-.56,12.78-1.47h0ZM73.81,286.92c-2.09-.84-4.19-1.68-6.28-2.37-2.16-.7-4.4-1.12-6.56-1.54-2.93-.56-6.14-.7-9.01-.07-1.47.35-3.35.91-4.4,1.82-.98.91-1.12,2.23,1.19,3.84,2.02,1.4,4.19,2.23,6.28,2.72,2.23.35,4.47.28,6.63,0,2.16-.35,4.33-.98,6.35-1.75,2.09-.84,4.05-1.75,5.8-2.65h0ZM106.21,306.83c-2.16-.35-4.4-.63-6.63-.77-2.3-.14-4.47-.28-6.7-.14-1.54.07-3.07.35-4.54.63-1.47.35-2.93.77-4.26,1.4-2.51,1.19-6.98,4.12-1.82,6.28,2.23.91,4.61,1.19,6.77,1.12,2.23-.14,4.33-.63,6.42-1.47,4.12-1.75,7.82-4.47,10.75-7.05h0ZM100.48,293.35c1.82,3.56,4.54,6.63,7.61,9.43.14-3.98.14-8.52-.49-12.57-.35-2.02-.84-4.05-1.61-5.8-.77-1.82-1.89-3.21-3.28-4.54-3.49-3.14-4.47,2.58-4.4,5.31.07,2.86.84,5.59,2.16,8.17h0ZM71.29,272.47c.42,1.96,1.19,3.77,2.09,5.66.91,1.82,1.96,3.63,3.14,5.24.49-1.89,1.05-3.91,1.4-6.01.49-2.16.84-4.26.98-6.35.14-2.09.14-4.05-.21-5.94-.35-1.96-.98-3.7-2.16-5.24-1.4-1.89-2.58-1.54-3.56-.35-.98,1.19-1.68,3.21-1.96,4.54-.56,2.79-.42,5.66.28,8.45h0ZM47.69,245.38c0,2.02.28,3.98.7,6.01.42,2.02,1.19,3.98,1.89,5.87,3.7-7.05,8.31-15.85,5.52-22.9-1.82-4.26-5.24.35-6.35,2.79-1.19,2.58-1.82,5.45-1.75,8.24h0ZM31.07,213.61c-.42,1.96-.63,3.98-.7,6.01,0,2.02.21,4.12.49,6.14,2.65-3,5.59-6.42,7.68-9.92,1.12-1.82,2.02-3.63,2.51-5.52.56-1.82.7-3.7.42-5.59-.63-4.61-5.1-.91-6.77,1.26-1.82,2.23-3.07,4.82-3.63,7.61h0ZM9.5,177.09c.28,2.58,1.12,5.03,2.16,7.26,1.47,2.86,3.21,5.45,5.24,7.82.21-1.75.42-3.49.49-5.24.07-1.75,0-3.42-.07-5.17-.07-1.47-.28-3.63-.84-5.73-.49-2.02-1.19-3.98-2.51-4.96-4.05-2.93-4.61,3.7-4.47,6.01h0Z"/>
    <path class="cls-1" d="M169.26,321c-3.21,0-6.35-.07-9.57-.28-7.26-.42-14.59-1.4-21.72-2.86-.98-.21-1.54-1.12-1.4-2.09.21-.91,1.12-1.54,2.09-1.33,6.98,1.4,14.17,2.37,21.3,2.79,50.28,3.07,100.9-19.06,132.11-57.75,32.82-40.64,43.57-96.5,28.07-145.73-14.45-46.02-49.72-83.51-94.34-100.27C177.71-4.67,121.78,2.31,79.95,31.71,38.62,60.76,12.92,110.05,12.99,160.4c0,.98-.84,1.75-1.75,1.75h0c-.98,0-1.82-.77-1.82-1.75,0-51.46,26.25-101.88,68.5-131.55C120.73-1.18,177.85-8.37,227.01,10.13c45.6,17.18,81.7,55.51,96.5,102.58,15.78,50.34,4.82,107.39-28.7,148.94-29.96,37.22-77.37,59.35-125.55,59.35h0Z"/>
    <g>
      <text class="cls-4" transform="translate(58.32 198.44)"><tspan x="0" y="0">L</tspan></text>
      <text class="cls-3" transform="translate(208.97 198.52)"><tspan x="0" y="0">H</tspan></text>
      <rect class="cls-5" x="143.8" y="119.4" width="39.24" height="2.24"/>
      <rect class="cls-5" x="143.8" y="196.2" width="39.24" height="2.35"/>
      <text class="cls-2" transform="translate(142.01 183.85)"><tspan x="0" y="0">&amp;</tspan></text>
    </g>
  </g>
</svg>