<?xml version="1.0" encoding="UTF-8"?>
<svg id="Layer_2" data-name="Layer 2" xmlns="http://www.w3.org/2000/svg" viewBox="0 0 333.54 333.46">
  <defs>
    <style>
      .cls-1 {
        font-family: AngleciaProDisplay-Italic, 'Anglecia Pro Display';
        font-size: 86.53px;
        font-style: italic;
        letter-spacing: -.07em;
      }

      .cls-1, .cls-2 {
        fill: #0c442e;
      }

      .cls-2 {
        fill-rule: evenodd;
        stroke-width: 0px;
      }
    </style>
  </defs>
  <g id="Layer_1-2" data-name="Layer 1">
    <g>
      <path class="cls-2" d="M5.68,163.93c0,.78-.63,1.42-1.42,1.42s-1.42-.64-1.42-1.42c0-45.27,18.35-86.25,48.02-115.91C80.52,18.35,121.5,0,166.77,0s86.25,18.35,115.91,48.01c29.67,29.66,48.02,70.65,48.02,115.91,0,.78-.64,1.42-1.42,1.42s-1.42-.64-1.42-1.42c0-44.48-18.03-84.76-47.18-113.91C251.52,20.87,211.25,2.84,166.77,2.84S82.01,20.87,52.86,50.02C23.71,79.17,5.68,119.44,5.68,163.93h0Z"/>
      <path class="cls-2" d="M290.82,260.02c.07-.03,26.17-9.46,23.99-49.35-.05-.78-.71-1.37-1.49-1.33-.66.04-1.19.53-1.31,1.15-.12.48-1.27,4.44-7.29,7.53-3.68,1.89-8.54,5.12-12.04,11.46-3.44,6.23-5.53,15.48-3.77,29.4.1.77.81,1.32,1.58,1.22.11-.01.22-.04.32-.08h0ZM312.11,215.85c-.19,27.93-15.46,38.11-20.61,40.76-1.27-12.15.63-20.27,3.67-25.77,3.14-5.68,7.52-8.59,10.85-10.3,2.84-1.46,4.78-3.15,6.1-4.7h0Z"/>
      <path class="cls-2" d="M290.4,260.11c1.01-.03,31.46-1.34,43.07-37.58.24-.74-.17-1.54-.92-1.78-.55-.17-1.12,0-1.48.4-.58.6-8.41,8.5-19.49,8.82-.67.02-1.22.51-1.35,1.14-5.37,20.82-20.37,26.24-20.41,26.25-.73.27-1.1,1.09-.83,1.82.22.59.8.95,1.4.92h0ZM329,226.56c-8.13,20.02-22.58,26.99-31.34,29.42,5.07-3.88,11.68-11.02,15.06-23.23,6.98-.48,12.69-3.61,16.28-6.19h0Z"/>
      <path class="cls-2" d="M294.44,228.95c-1.91-.84-4.6-2.36-7.36-5.04-2.79-2.71-5.65-6.6-7.87-12.15-.29-.73-1.11-1.09-1.84-.8-.44.18-.75.55-.85.98-.46,1.54-8.64,30.17,12.9,47.84.6.5,1.49.41,1.99-.19.26-.31.36-.7.31-1.07l-.14-1.24c-.06-.6-.13-1.2-.18-1.8l-.05-.59c-.06-.75-.1-1.31-.12-1.71-.03-.52-.06-1.07-.08-1.65-.03-1.06-.04-2.12-.03-3.19h0c.01-.5.02-1,.04-1.5h0c.03-.64.06-1.28.11-1.92h0c.15-1.76.37-3.44.72-5.18h0s.07-.34.07-.34c.09-.53.26-1.14.39-1.66h0c.19-.72.4-1.44.64-2.15h0c.08-.22.16-.45.23-.68h0s.09-.25.09-.25l.03-.11.04-.11h0c.27-.69.54-1.36.86-2.03h0c.18-.38.37-.76.56-1.13h0s.19-.36.19-.36c.37-.69.12-1.55-.57-1.92l-.1-.05h0ZM285.11,225.94c2.46,2.39,4.88,3.96,6.84,4.97l-.14.29h0c-.34.73-.65,1.47-.95,2.23h0s-.11.27-.11.27l-.09.25-.26.74s-.06.18-.07.2c-.23.71-.44,1.41-.63,2.14,0,0-.38,1.63-.43,1.81l-.07.34h0c-.38,1.7-.52,3.36-.74,5.08l-.04.43h0c-.07.66-.1,1.36-.13,2.02h0c-.02.53-.04,1.06-.05,1.58v1.08s0,.46,0,.53c0,.58.02,1.16.04,1.74.01.52.04,1.1.08,1.72.05.74.09,1.34.12,1.77v.06c-13.03-12.94-11.62-30.7-10.19-38.52,2.06,3.99,4.44,7.01,6.77,9.28h0Z"/>
      <path class="cls-2" d="M302.21,221.34c-.98-1.81-2.21-3.88-3.7-6.04-1.5-2.16-3.27-4.42-5.33-6.6-.54-.57-1.43-.59-2-.06-.1.1-.18.2-.25.32h0s-4.17,7.17-5.79,16.12c-.09.49.09.97.43,1.28,1.15,1.07,2.36,2.04,3.64,2.91,1.3.87,2.66,1.63,4.1,2.27.71.32,1.55,0,1.87-.71.98-1.81,2.03-3.26,3.13-4.49,1.11-1.24,2.3-2.27,3.53-3.2.57-.43.72-1.2.39-1.8h0ZM296.19,216.91c1.15,1.66,2.14,3.27,2.96,4.73-1.02.83-2,1.74-2.96,2.81-1.01,1.13-1.98,2.42-2.89,3.95-.88-.45-1.71-.94-2.52-1.48-.94-.64-1.85-1.34-2.72-2.11,1.12-5.55,3.21-10.27,4.41-12.7,1.39,1.59,2.63,3.22,3.72,4.79h0Z"/>
      <path class="cls-2" d="M299.56,221.87c-.07.78.49,1.47,1.27,1.54.77.08,1.47-.49,1.54-1.27,0-.04,1.39-14.95,10.41-23.87.56-.55.56-1.45.01-2-.55-.56-1.45-.56-2-.01-9.75,9.64-11.24,25.57-11.24,25.61h0Z"/>
      <path class="cls-2" d="M285.11,225.27c-.03.78.57,1.44,1.35,1.48.78.03,1.45-.57,1.48-1.35,0-.05.78-16.05-8.29-25.75-.53-.57-1.43-.6-2-.07-.57.53-.6,1.43-.07,2,8.25,8.82,7.53,23.65,7.52,23.69h0Z"/>
      <path class="cls-2" d="M311.01,230.11c-.71.34-1,1.18-.67,1.89.34.7,1.19,1,1.89.66.03-.01,9.89-4.67,15.5-19.24.28-.73-.08-1.55-.81-1.83-.73-.28-1.55.08-1.83.81-5.21,13.52-14.06,17.7-14.08,17.71h0Z"/>
      <path class="cls-2" d="M291.6,259.28c.33-.71.02-1.55-.69-1.87-.71-.32-1.55-.01-1.87.7-.07.15-24.01,53.83-92.83,63.59-.77.11-1.32.83-1.21,1.6s.83,1.31,1.6,1.2c70.36-9.98,94.93-65.06,95-65.22h0Z"/>
      <path class="cls-2" d="M222.45,316.29c-.38-.28-.91-.2-1.19.18-.28.38-.2.91.18,1.19.02.02,8.14,6.13,22.09,3.75.46-.08.77-.52.69-.98-.08-.46-.52-.77-.98-.69-13.22,2.26-20.77-3.43-20.79-3.44h0Z"/>
      <path class="cls-2" d="M242.46,321.33c21.08,10.64,25.11-10.98,39.25-16.91,0,0-38.55-5.69-39.25,16.91h0ZM245.18,318.9c.44-2.22,1.4-4.23,3.02-5.96,3.15-3.36,8.13-5,12.54-5.83,4.38-.82,9-1.02,13.45-.86-9.49,7.78-13.87,19.29-27.44,14.3,3.22-.93,9.77-3.28,14.2-7.89-1.68,1.24-10.66,6.52-15.78,6.24h0Z"/>
      <path class="cls-2" d="M277.07,278.8c12.97,19.74,27.24,3,42.46,4.92,0,0-30.58-24.16-42.46-4.92h0ZM280.63,278.05c1.48-1.7,3.32-2.96,5.6-3.66,4.4-1.34,9.54-.28,13.77,1.2,4.2,1.47,8.3,3.61,12.09,5.96-12.1,2.01-21.65,9.8-30.91-1.29,3.25.79,10.1,2.02,16.24.24-2.08.23-12.49.34-16.8-2.46h0Z"/>
      <path class="cls-2" d="M263.8,292c-18.52-14.65-.6-27.4-1.16-42.72,0,0,21.38,32.58,1.16,42.72h0ZM264.86,288.52c1.83-1.33,3.25-3.04,4.14-5.25,1.72-4.27,1.12-9.48.01-13.83-1.1-4.32-2.86-8.59-4.88-12.57-3.07,11.88-11.67,20.7-1.44,30.9-.5-3.31-1.13-10.24,1.19-16.2-.41,2.05-1.43,12.42.97,16.94h0Z"/>
      <path class="cls-2" d="M221.39,316.33c-.35.31-.4.84-.09,1.2.3.36.84.4,1.19.09.04-.03,13.78-11.79,15.12-23.44.05-.47-.28-.89-.75-.94-.47-.05-.89.28-.94.75-1.26,10.99-14.49,22.31-14.53,22.34h0Z"/>
      <path class="cls-2" d="M236.59,296.46c-18.52-14.65-.6-27.4-1.16-42.72,0,0,21.38,32.59,1.16,42.72h0ZM237.65,292.98c1.82-1.33,3.24-3.04,4.13-5.25,1.72-4.27,1.12-9.48.01-13.83-1.1-4.32-2.86-8.59-4.88-12.57-3.07,11.88-11.66,20.7-1.44,30.9-.51-3.31-1.13-10.24,1.19-16.2-.42,2.05-1.43,12.42.98,16.95h0Z"/>
      <path class="cls-2" d="M327.9,211.33c-.45-1.7-2.2-2.72-3.9-2.27-1.7.45-2.72,2.2-2.27,3.9.45,1.7,2.2,2.72,3.9,2.27,1.7-.45,2.72-2.2,2.27-3.9h0Z"/>
      <path class="cls-2" d="M315.86,197.95c-.45-1.7-2.2-2.72-3.9-2.27s-2.72,2.2-2.27,3.9c.45,1.7,2.2,2.72,3.9,2.27,1.7-.45,2.72-2.2,2.27-3.9h0Z"/>
      <path class="cls-2" d="M279.9,200.3c-.45-1.7-2.2-2.72-3.9-2.27-1.7.45-2.72,2.2-2.27,3.9.45,1.7,2.2,2.72,3.9,2.27,1.71-.45,2.72-2.2,2.27-3.9h0Z"/>
      <path class="cls-2" d="M42.72,260.02c-.07-.03-26.17-9.46-23.99-49.35.04-.78.71-1.37,1.49-1.33.66.04,1.19.53,1.31,1.15.12.48,1.27,4.44,7.29,7.53,3.68,1.89,8.54,5.12,12.04,11.46,3.44,6.23,5.53,15.48,3.76,29.4-.1.77-.81,1.32-1.58,1.22-.11-.01-.22-.04-.32-.08h0ZM21.43,215.85c.18,27.93,15.45,38.11,20.61,40.76,1.27-12.15-.63-20.27-3.66-25.77-3.14-5.68-7.52-8.59-10.85-10.3-2.84-1.46-4.78-3.15-6.1-4.7h0Z"/>
      <path class="cls-2" d="M43.14,260.11c-1.02-.03-31.46-1.34-43.07-37.58-.24-.74.17-1.54.91-1.78.55-.17,1.12,0,1.48.4.58.6,8.41,8.5,19.49,8.82.67.02,1.22.51,1.35,1.14,5.37,20.82,20.36,26.24,20.41,26.25.73.27,1.1,1.09.83,1.82-.22.59-.8.95-1.4.92h0ZM4.53,226.56c8.13,20.02,22.58,26.99,31.34,29.42-5.07-3.88-11.68-11.02-15.06-23.23-6.98-.48-12.69-3.61-16.28-6.19h0Z"/>
      <path class="cls-2" d="M39.09,228.95c1.92-.84,4.6-2.36,7.36-5.04,2.79-2.71,5.65-6.6,7.87-12.15.29-.73,1.11-1.09,1.84-.8.44.18.75.55.86.98.46,1.54,8.64,30.17-12.9,47.84-.6.5-1.5.41-1.99-.19-.26-.31-.36-.7-.31-1.07l.14-1.24c.07-.6.13-1.2.18-1.8l.05-.59c.06-.75.1-1.31.12-1.71.03-.52.06-1.07.08-1.65.03-1.06.04-2.12.03-3.19h0c0-.5-.02-1-.04-1.5h0c-.03-.64-.06-1.28-.11-1.92h0c-.15-1.76-.37-3.44-.71-5.18h0s-.07-.34-.07-.34c-.09-.53-.25-1.14-.39-1.66h0c-.19-.72-.4-1.44-.64-2.15h0c-.08-.22-.15-.45-.23-.68h0s-.09-.25-.09-.25l-.03-.11-.04-.11h0c-.27-.69-.54-1.36-.86-2.03h0c-.18-.38-.37-.76-.56-1.13h0s-.19-.36-.19-.36c-.37-.69-.11-1.55.57-1.92l.1-.05h0ZM48.43,225.94c-2.46,2.39-4.88,3.96-6.84,4.97l.14.29h0c.35.73.66,1.47.95,2.23h0s.11.27.11.27l.09.25.26.74s.06.18.06.2c.23.71.44,1.41.63,2.14,0,0,.38,1.63.43,1.81l.07.34h0c.38,1.7.52,3.36.74,5.08l.03.43h0c.06.66.1,1.36.13,2.02h0c.02.53.04,1.06.05,1.58v1.08s0,.46,0,.53c0,.58-.02,1.16-.04,1.74-.02.52-.05,1.1-.08,1.72-.04.74-.09,1.34-.12,1.77v.06c13.04-12.94,11.63-30.7,10.19-38.52-2.06,3.99-4.44,7.01-6.77,9.28h0Z"/>
      <path class="cls-2" d="M31.32,221.34c.98-1.81,2.21-3.88,3.7-6.04,1.5-2.16,3.27-4.42,5.33-6.6.54-.57,1.43-.59,2-.06.1.1.18.2.25.32h0s4.17,7.17,5.8,16.12c.09.49-.09.97-.43,1.28-1.15,1.07-2.36,2.04-3.64,2.91-1.3.87-2.66,1.63-4.1,2.27-.71.32-1.55,0-1.87-.71-.98-1.81-2.03-3.26-3.13-4.49-1.12-1.24-2.3-2.27-3.53-3.2-.57-.43-.72-1.2-.39-1.8h0ZM37.35,216.91c-1.15,1.66-2.14,3.27-2.96,4.73,1.01.83,2,1.74,2.96,2.81,1.01,1.13,1.98,2.42,2.89,3.95.87-.45,1.71-.94,2.51-1.48.94-.64,1.85-1.34,2.72-2.11-1.11-5.55-3.2-10.27-4.4-12.7-1.39,1.59-2.63,3.22-3.72,4.79h0Z"/>
      <path class="cls-2" d="M33.97,221.87c.07.78-.49,1.47-1.27,1.54-.78.08-1.47-.49-1.55-1.27,0-.04-1.39-14.95-10.41-23.87-.56-.55-.56-1.45-.01-2,.55-.56,1.45-.56,2-.01,9.75,9.64,11.24,25.57,11.24,25.61h0Z"/>
      <path class="cls-2" d="M48.43,225.27c.03.78-.57,1.44-1.35,1.48-.79.03-1.45-.57-1.48-1.35,0-.05-.78-16.05,8.28-25.75.53-.57,1.43-.6,2-.07.57.53.6,1.43.07,2-8.25,8.82-7.53,23.65-7.52,23.69h0Z"/>
      <path class="cls-2" d="M22.52,230.11c.71.34,1,1.18.66,1.89-.34.7-1.18,1-1.89.66-.03-.01-9.89-4.67-15.5-19.24-.28-.73.09-1.55.81-1.83.73-.28,1.55.08,1.83.81,5.2,13.52,14.06,17.7,14.08,17.71h0Z"/>
      <path class="cls-2" d="M41.93,259.28c-.33-.71-.01-1.55.7-1.87.71-.32,1.55-.01,1.87.7.07.15,24.01,53.83,92.83,63.59.78.11,1.31.83,1.21,1.6-.11.77-.83,1.31-1.6,1.2-70.36-9.98-94.93-65.06-95-65.22h0Z"/>
      <path class="cls-2" d="M111.09,316.29c.38-.28.91-.2,1.19.18.28.38.2.91-.18,1.19-.02.02-8.15,6.13-22.09,3.75-.46-.08-.77-.52-.69-.98.08-.46.52-.77.98-.69,13.22,2.26,20.77-3.43,20.79-3.44h0Z"/>
      <path class="cls-2" d="M91.07,321.33c-21.08,10.64-25.11-10.98-39.25-16.91,0,0,38.55-5.69,39.25,16.91h0ZM88.36,318.9c-.44-2.22-1.4-4.23-3.03-5.96-3.15-3.36-8.13-5-12.54-5.83-4.38-.82-8.99-1.02-13.45-.86,9.49,7.78,13.87,19.29,27.43,14.3-3.22-.93-9.77-3.28-14.2-7.89,1.69,1.24,10.66,6.52,15.79,6.24h0Z"/>
      <path class="cls-2" d="M56.46,278.8c-12.97,19.74-27.24,3-42.46,4.92,0,0,30.58-24.16,42.46-4.92h0ZM52.9,278.05c-1.48-1.7-3.32-2.96-5.6-3.66-4.41-1.34-9.54-.28-13.77,1.2-4.2,1.47-8.31,3.61-12.09,5.96,12.1,2.01,21.65,9.8,30.91-1.29-3.26.79-10.1,2.02-16.24.24,2.08.23,12.49.34,16.8-2.46h0Z"/>
      <path class="cls-2" d="M69.74,292c18.52-14.65.6-27.4,1.16-42.72,0,0-21.38,32.58-1.16,42.72h0ZM68.68,288.52c-1.83-1.33-3.25-3.04-4.14-5.25-1.72-4.27-1.12-9.48-.01-13.83,1.09-4.32,2.86-8.59,4.87-12.57,3.07,11.88,11.67,20.7,1.44,30.9.5-3.31,1.13-10.24-1.19-16.2.42,2.05,1.44,12.42-.97,16.94h0Z"/>
      <path class="cls-2" d="M112.14,316.33c.36.31.4.84.09,1.2-.3.36-.84.4-1.2.09-.04-.03-13.77-11.79-15.11-23.44-.06-.47.28-.89.75-.94.47-.05.88.28.94.75,1.26,10.99,14.49,22.31,14.53,22.34h0Z"/>
      <path class="cls-2" d="M96.95,296.46c18.52-14.65.6-27.4,1.17-42.72,0,0-21.38,32.59-1.17,42.72h0ZM95.88,292.98c-1.82-1.33-3.24-3.04-4.14-5.25-1.72-4.27-1.11-9.48-.01-13.83,1.1-4.32,2.86-8.59,4.88-12.57,3.07,11.88,11.67,20.7,1.44,30.9.5-3.31,1.13-10.24-1.2-16.2.42,2.05,1.44,12.42-.97,16.95h0Z"/>
      <path class="cls-2" d="M5.64,211.33c.45-1.7,2.2-2.72,3.9-2.27,1.7.45,2.72,2.2,2.27,3.9-.45,1.7-2.19,2.72-3.9,2.27-1.7-.45-2.72-2.2-2.27-3.9h0Z"/>
      <path class="cls-2" d="M17.68,197.95c.45-1.7,2.19-2.72,3.9-2.27,1.7.45,2.72,2.2,2.27,3.9-.45,1.7-2.19,2.72-3.9,2.27-1.7-.45-2.72-2.2-2.27-3.9h0Z"/>
      <path class="cls-2" d="M53.63,200.3c.45-1.7,2.2-2.72,3.9-2.27,1.7.45,2.72,2.2,2.27,3.9-.45,1.7-2.2,2.72-3.9,2.27-1.7-.45-2.72-2.2-2.27-3.9h0Z"/>
      <path class="cls-2" d="M166.77,319c3.99,0,7.23,3.24,7.23,7.23s-3.24,7.23-7.23,7.23-7.23-3.24-7.23-7.23,3.24-7.23,7.23-7.23h0Z"/>
      <path class="cls-2" d="M185.43,321.62c2.09,0,3.79,1.7,3.79,3.79s-1.7,3.79-3.79,3.79-3.79-1.7-3.79-3.79,1.7-3.79,3.79-3.79h0Z"/>
      <path class="cls-2" d="M148.1,321.62c2.1,0,3.79,1.7,3.79,3.79s-1.7,3.79-3.79,3.79-3.79-1.7-3.79-3.79,1.7-3.79,3.79-3.79h0Z"/>
      <path class="cls-2" d="M327.69,182.46c2.59,0,4.69,2.1,4.69,4.69s-2.1,4.69-4.69,4.69-4.69-2.1-4.69-4.69,2.1-4.69,4.69-4.69h0Z"/>
      <path class="cls-2" d="M5.85,181.68c2.59,0,4.69,2.1,4.69,4.69s-2.1,4.69-4.69,4.69-4.68-2.1-4.68-4.69,2.1-4.69,4.68-4.69h0Z"/>
      <text class="cls-1" transform="translate(73.85 191.35)"><tspan x="0" y="0">L &amp; H</tspan></text>
    </g>
  </g>
</svg>