<?xml version="1.0" standalone="no"?>
<!DOCTYPE svg PUBLIC "-//W3C//DTD SVG 20010904//EN"
 "http://www.w3.org/TR/2001/REC-SVG-20010904/DTD/svg10.dtd">
<svg version="1.0" xmlns="http://www.w3.org/2000/svg"
 width="250.000000pt" height="250.000000pt" viewBox="0 0 250.000000 250.000000"
 preserveAspectRatio="xMidYMid meet">

<g transform="translate(0.000000,250.000000) scale(0.100000,-0.100000)"
fill="#000000" stroke="none">
<path d="M330 2065 l0 -105 105 0 105 0 0 105 0 105 -105 0 -105 0 0 -105z
m180 0 l0 -75 -75 0 -75 0 0 75 0 75 75 0 75 0 0 -75z"/>
<path d="M390 2065 l0 -45 45 0 45 0 0 45 0 45 -45 0 -45 0 0 -45z"/>
<path d="M570 2155 c0 -8 7 -15 15 -15 8 0 15 7 15 15 0 8 -7 15 -15 15 -8 0
-15 -7 -15 -15z"/>
<path d="M720 2140 l0 -30 60 0 c47 0 60 -3 60 -15 0 -8 -7 -15 -15 -15 -8 0
-15 -7 -15 -15 0 -8 -7 -15 -15 -15 -8 0 -15 -7 -15 -15 0 -8 -7 -15 -15 -15
-8 0 -15 7 -15 15 0 8 7 15 15 15 8 0 15 7 15 15 0 8 -7 15 -15 15 -8 0 -15
-7 -15 -15 0 -10 -10 -15 -30 -15 -27 0 -30 3 -30 30 0 29 -2 30 -45 30 -33 0
-45 -4 -45 -15 0 -8 7 -15 15 -15 8 0 15 -7 15 -15 0 -8 7 -15 15 -15 8 0 15
-7 15 -15 0 -10 10 -15 30 -15 20 0 30 -5 30 -15 0 -8 -7 -15 -15 -15 -8 0
-15 -7 -15 -15 0 -8 -7 -15 -15 -15 -8 0 -15 7 -15 15 0 8 -7 15 -15 15 -8 0
-15 -7 -15 -15 0 -8 -7 -15 -15 -15 -8 0 -15 7 -15 15 0 8 7 15 15 15 10 0 15
10 15 30 0 27 -3 30 -30 30 -29 0 -30 -2 -30 -45 0 -33 4 -45 15 -45 11 0 15
-12 15 -45 0 -33 -4 -45 -15 -45 -8 0 -15 -7 -15 -15 0 -10 10 -15 30 -15 20
0 30 5 30 15 0 11 12 15 45 15 33 0 45 -4 45 -15 0 -8 -7 -15 -15 -15 -8 0
-15 -7 -15 -15 0 -8 7 -15 15 -15 8 0 15 -7 15 -15 0 -11 12 -15 45 -15 l45 0
0 60 c0 47 3 60 15 60 12 0 15 15 15 75 l0 75 30 0 c20 0 30 5 30 15 0 8 -7
15 -15 15 -8 0 -15 7 -15 15 0 8 7 15 15 15 10 0 15 10 15 30 0 20 -5 30 -15
30 -8 0 -15 -7 -15 -15 0 -8 -7 -15 -15 -15 -8 0 -15 7 -15 15 0 12 -13 15
-60 15 l-60 0 0 -30z m30 -165 c0 -8 7 -15 15 -15 8 0 15 7 15 15 0 8 7 15 15
15 8 0 15 -7 15 -15 0 -8 -7 -15 -15 -15 -8 0 -15 -7 -15 -15 0 -8 7 -15 15
-15 8 0 15 -7 15 -15 0 -8 -7 -15 -15 -15 -8 0 -15 -7 -15 -15 0 -8 -7 -15
-15 -15 -8 0 -15 7 -15 15 0 10 -10 15 -30 15 -27 0 -30 3 -30 30 0 20 5 30
15 30 8 0 15 7 15 15 0 8 7 15 15 15 8 0 15 -7 15 -15z m-90 -45 c0 -20 -5
-30 -15 -30 -10 0 -15 10 -15 30 0 20 5 30 15 30 10 0 15 -10 15 -30z"/>
<path d="M750 1915 c0 -8 7 -15 15 -15 8 0 15 7 15 15 0 8 -7 15 -15 15 -8 0
-15 -7 -15 -15z"/>
<path d="M930 2155 c0 -8 7 -15 15 -15 8 0 15 -7 15 -15 0 -8 -7 -15 -15 -15
-11 0 -15 -12 -15 -45 0 -43 1 -45 30 -45 20 0 30 5 30 15 0 8 7 15 15 15 10
0 15 -10 15 -30 0 -20 -5 -30 -15 -30 -8 0 -15 -7 -15 -15 0 -8 7 -15 15 -15
8 0 15 -7 15 -15 0 -8 -7 -15 -15 -15 -10 0 -15 -10 -15 -30 0 -29 2 -30 45
-30 33 0 45 -4 45 -15 0 -12 -13 -15 -60 -15 l-60 0 0 30 c0 27 -3 30 -30 30
-29 0 -30 2 -30 45 0 33 -4 45 -15 45 -12 0 -15 -15 -15 -75 0 -60 3 -75 15
-75 8 0 15 7 15 15 0 8 7 15 15 15 10 0 15 -10 15 -30 0 -20 5 -30 15 -30 8 0
15 -7 15 -15 0 -8 -7 -15 -15 -15 -8 0 -15 -7 -15 -15 0 -8 -7 -15 -15 -15
-10 0 -15 10 -15 30 0 27 -3 30 -30 30 -27 0 -30 -3 -30 -30 0 -20 -5 -30 -15
-30 -10 0 -15 -10 -15 -30 0 -20 5 -30 15 -30 8 0 15 -7 15 -15 0 -8 -7 -15
-15 -15 -8 0 -15 -7 -15 -15 0 -8 -7 -15 -15 -15 -8 0 -15 -7 -15 -15 0 -8 -7
-15 -15 -15 -10 0 -15 10 -15 30 0 20 5 30 15 30 8 0 15 7 15 15 0 8 -7 15
-15 15 -8 0 -15 7 -15 15 0 8 -7 15 -15 15 -8 0 -15 -7 -15 -15 0 -8 -7 -15
-15 -15 -8 0 -15 7 -15 15 0 8 -7 15 -15 15 -8 0 -15 7 -15 15 0 8 -7 15 -15
15 -8 0 -15 7 -15 15 0 8 7 15 15 15 8 0 15 -7 15 -15 0 -10 10 -15 30 -15 20
0 30 5 30 15 0 8 -7 15 -15 15 -8 0 -15 7 -15 15 0 12 -13 15 -60 15 -47 0
-60 3 -60 15 0 8 -7 15 -15 15 -8 0 -15 7 -15 15 0 8 -7 15 -15 15 -8 0 -15 7
-15 15 0 8 7 15 15 15 8 0 15 -7 15 -15 0 -8 7 -15 15 -15 10 0 15 10 15 30
l0 30 -105 0 c-87 0 -105 -3 -105 -15 0 -8 -7 -15 -15 -15 -8 0 -15 -7 -15
-15 0 -11 12 -15 45 -15 33 0 45 4 45 15 0 10 10 15 30 15 20 0 30 -5 30 -15
0 -8 -7 -15 -15 -15 -8 0 -15 -7 -15 -15 0 -11 12 -15 45 -15 33 0 45 -4 45
-15 0 -10 -10 -15 -30 -15 -20 0 -30 -5 -30 -15 0 -8 -7 -15 -15 -15 -8 0 -15
-7 -15 -15 0 -8 -7 -15 -15 -15 -11 0 -15 12 -15 45 l0 45 -45 0 -45 0 0 -45
c0 -33 4 -45 15 -45 8 0 15 -7 15 -15 0 -8 -7 -15 -15 -15 -10 0 -15 -10 -15
-30 0 -20 5 -30 15 -30 8 0 15 -7 15 -15 0 -8 -7 -15 -15 -15 -11 0 -15 -12
-15 -45 0 -43 1 -45 30 -45 29 0 30 -2 30 -45 0 -33 4 -45 15 -45 8 0 15 -7
15 -15 0 -8 -7 -15 -15 -15 -8 0 -15 7 -15 15 0 8 -7 15 -15 15 -8 0 -15 7
-15 15 0 8 -7 15 -15 15 -11 0 -15 -12 -15 -45 0 -33 4 -45 15 -45 8 0 15 -7
15 -15 0 -8 -7 -15 -15 -15 -10 0 -15 -10 -15 -30 0 -29 2 -30 45 -30 33 0 45
-4 45 -15 0 -8 7 -15 15 -15 12 0 15 -13 15 -60 0 -47 -3 -60 -15 -60 -8 0
-15 -7 -15 -15 0 -8 -7 -15 -15 -15 -8 0 -15 -7 -15 -15 0 -8 -7 -15 -15 -15
-10 0 -15 10 -15 30 0 20 5 30 15 30 8 0 15 7 15 15 0 8 -7 15 -15 15 -8 0
-15 7 -15 15 0 8 7 15 15 15 8 0 15 7 15 15 0 10 -10 15 -30 15 -27 0 -30 -3
-30 -30 0 -20 5 -30 15 -30 8 0 15 -7 15 -15 0 -8 -7 -15 -15 -15 -10 0 -15
-10 -15 -30 0 -20 5 -30 15 -30 8 0 15 -7 15 -15 0 -8 7 -15 15 -15 10 0 15
-10 15 -30 0 -20 5 -30 15 -30 8 0 15 -7 15 -15 0 -10 -10 -15 -30 -15 -27 0
-30 3 -30 30 0 20 -5 30 -15 30 -10 0 -15 -10 -15 -30 0 -20 5 -30 15 -30 8 0
15 -7 15 -15 0 -8 -7 -15 -15 -15 -11 0 -15 -12 -15 -45 0 -33 4 -45 15 -45
11 0 15 12 15 45 0 43 1 45 30 45 27 0 30 -3 30 -30 0 -20 -5 -30 -15 -30 -8
0 -15 -7 -15 -15 0 -12 13 -15 60 -15 47 0 60 -3 60 -15 0 -8 7 -15 15 -15 8
0 15 -7 15 -15 0 -8 7 -15 15 -15 8 0 15 -7 15 -15 0 -8 -7 -15 -15 -15 -8 0
-15 -7 -15 -15 0 -8 -7 -15 -15 -15 -8 0 -15 7 -15 15 0 8 7 15 15 15 8 0 15
7 15 15 0 8 -7 15 -15 15 -8 0 -15 -7 -15 -15 0 -8 -7 -15 -15 -15 -10 0 -15
-10 -15 -30 0 -27 3 -30 30 -30 20 0 30 -5 30 -15 0 -12 -15 -15 -75 -15 -60
0 -75 -3 -75 -15 0 -10 -10 -15 -30 -15 -27 0 -30 -3 -30 -30 l0 -30 60 0 c47
0 60 3 60 15 0 8 7 15 15 15 8 0 15 7 15 15 0 10 10 15 30 15 20 0 30 5 30 15
0 8 7 15 15 15 8 0 15 -7 15 -15 0 -8 7 -15 15 -15 8 0 15 7 15 15 0 8 -7 15
-15 15 -10 0 -15 10 -15 30 0 20 5 30 15 30 8 0 15 -7 15 -15 0 -10 10 -15 30
-15 l30 0 0 60 c0 47 3 60 15 60 8 0 15 7 15 15 0 8 -7 15 -15 15 -8 0 -15 -7
-15 -15 0 -8 -7 -15 -15 -15 -10 0 -15 10 -15 30 0 27 3 30 30 30 20 0 30 5
30 15 0 8 -7 15 -15 15 -10 0 -15 10 -15 30 0 20 5 30 15 30 8 0 15 -7 15 -15
0 -10 10 -15 30 -15 20 0 30 -5 30 -15 0 -8 7 -15 15 -15 12 0 15 -13 15 -60
0 -47 -3 -60 -15 -60 -8 0 -15 -7 -15 -15 0 -8 -7 -15 -15 -15 -8 0 -15 -7
-15 -15 0 -8 7 -15 15 -15 8 0 15 7 15 15 0 8 7 15 15 15 11 0 15 -12 15 -45
0 -43 1 -45 30 -45 20 0 30 5 30 15 0 8 7 15 15 15 8 0 15 -7 15 -15 0 -8 7
-15 15 -15 8 0 15 -7 15 -15 0 -10 -10 -15 -30 -15 -27 0 -30 -3 -30 -30 0
-20 -5 -30 -15 -30 -10 0 -15 10 -15 30 0 29 -2 30 -45 30 -43 0 -45 -1 -45
-30 0 -27 3 -30 30 -30 20 0 30 -5 30 -15 0 -10 -10 -15 -30 -15 -20 0 -30 -5
-30 -15 0 -10 10 -15 30 -15 20 0 30 5 30 15 0 11 12 15 45 15 43 0 45 1 45
30 0 20 5 30 15 30 8 0 15 7 15 15 0 8 7 15 15 15 8 0 15 7 15 15 0 8 -7 15
-15 15 -10 0 -15 10 -15 30 0 20 -5 30 -15 30 -8 0 -15 7 -15 15 0 8 -7 15
-15 15 -8 0 -15 -7 -15 -15 0 -8 -7 -15 -15 -15 -8 0 -15 7 -15 15 0 8 -7 15
-15 15 -8 0 -15 7 -15 15 0 8 7 15 15 15 8 0 15 7 15 15 0 8 7 15 15 15 8 0
15 -7 15 -15 0 -8 7 -15 15 -15 10 0 15 10 15 30 0 20 5 30 15 30 10 0 15 -10
15 -30 0 -20 -5 -30 -15 -30 -8 0 -15 -7 -15 -15 0 -8 7 -15 15 -15 8 0 15 -7
15 -15 0 -10 10 -15 30 -15 20 0 30 5 30 15 0 8 7 15 15 15 8 0 15 -7 15 -15
0 -8 -7 -15 -15 -15 -8 0 -15 -7 -15 -15 0 -8 7 -15 15 -15 8 0 15 -7 15 -15
0 -8 7 -15 15 -15 8 0 15 7 15 15 0 8 7 15 15 15 10 0 15 10 15 30 0 20 -5 30
-15 30 -10 0 -15 10 -15 30 0 20 -5 30 -15 30 -8 0 -15 -7 -15 -15 0 -10 -10
-15 -30 -15 -29 0 -30 2 -30 45 0 43 1 45 30 45 20 0 30 -5 30 -15 0 -8 7 -15
15 -15 8 0 15 7 15 15 0 8 7 15 15 15 8 0 15 7 15 15 0 12 -13 15 -60 15 -47
0 -60 3 -60 15 0 8 -7 15 -15 15 -8 0 -15 -7 -15 -15 0 -8 7 -15 15 -15 8 0
15 -7 15 -15 0 -10 -10 -15 -30 -15 -20 0 -30 5 -30 15 0 10 -10 15 -30 15
-20 0 -30 5 -30 15 0 8 -7 15 -15 15 -8 0 -15 7 -15 15 0 11 -12 15 -45 15
-43 0 -45 1 -45 30 0 27 3 30 30 30 20 0 30 5 30 15 0 10 -10 15 -30 15 -20 0
-30 5 -30 15 0 8 7 15 15 15 8 0 15 7 15 15 0 8 -7 15 -15 15 -8 0 -15 7 -15
15 0 10 10 15 30 15 20 0 30 5 30 15 0 10 10 15 30 15 20 0 30 -5 30 -15 0 -8
-7 -15 -15 -15 -8 0 -15 -7 -15 -15 0 -8 -7 -15 -15 -15 -8 0 -15 -7 -15 -15
0 -8 7 -15 15 -15 12 0 15 -13 15 -60 l0 -60 30 0 c20 0 30 5 30 15 0 8 7 15
15 15 8 0 15 -7 15 -15 0 -8 -7 -15 -15 -15 -8 0 -15 -7 -15 -15 0 -8 7 -15
15 -15 8 0 15 7 15 15 0 11 12 15 45 15 33 0 45 -4 45 -15 0 -10 10 -15 30
-15 20 0 30 5 30 15 0 8 -7 15 -15 15 -8 0 -15 7 -15 15 0 8 -7 15 -15 15 -10
0 -15 10 -15 30 0 20 5 30 15 30 8 0 15 7 15 15 0 8 7 15 15 15 8 0 15 7 15
15 0 10 10 15 30 15 27 0 30 3 30 30 0 20 5 30 15 30 11 0 15 -12 15 -45 l0
-45 -45 0 c-33 0 -45 -4 -45 -15 0 -8 -7 -15 -15 -15 -10 0 -15 -10 -15 -30 0
-20 5 -30 15 -30 8 0 15 7 15 15 0 11 12 15 45 15 33 0 45 4 45 15 0 8 7 15
15 15 10 0 15 -10 15 -30 0 -27 3 -30 30 -30 20 0 30 -5 30 -15 0 -8 -7 -15
-15 -15 -8 0 -15 -7 -15 -15 0 -8 -7 -15 -15 -15 -8 0 -15 -7 -15 -15 0 -8 7
-15 15 -15 10 0 15 -10 15 -30 0 -27 -3 -30 -30 -30 -27 0 -30 3 -30 30 0 20
-5 30 -15 30 -10 0 -15 -10 -15 -30 0 -20 -5 -30 -15 -30 -11 0 -15 -12 -15
-45 0 -33 4 -45 15 -45 10 0 15 10 15 30 0 29 2 30 45 30 33 0 45 -4 45 -15 0
-10 -10 -15 -30 -15 -20 0 -30 -5 -30 -15 0 -10 10 -15 30 -15 20 0 30 5 30
15 0 8 7 15 15 15 8 0 15 7 15 15 0 8 -7 15 -15 15 -8 0 -15 7 -15 15 0 8 7
15 15 15 11 0 15 12 15 45 0 43 1 45 30 45 20 0 30 -5 30 -15 0 -8 7 -15 15
-15 8 0 15 -7 15 -15 0 -8 7 -15 15 -15 8 0 15 7 15 15 0 8 7 15 15 15 8 0 15
7 15 15 0 8 7 15 15 15 11 0 15 -12 15 -45 0 -33 4 -45 15 -45 8 0 15 -7 15
-15 0 -8 -7 -15 -15 -15 -8 0 -15 -7 -15 -15 0 -8 -7 -15 -15 -15 -8 0 -15 7
-15 15 0 8 -7 15 -15 15 -8 0 -15 7 -15 15 0 8 -7 15 -15 15 -8 0 -15 7 -15
15 0 10 -10 15 -30 15 -27 0 -30 -3 -30 -30 0 -29 2 -30 45 -30 33 0 45 -4 45
-15 0 -10 -10 -15 -30 -15 -20 0 -30 -5 -30 -15 0 -10 -10 -15 -30 -15 -27 0
-30 -3 -30 -30 0 -20 -5 -30 -15 -30 -8 0 -15 7 -15 15 0 11 -12 15 -45 15
-43 0 -45 -1 -45 -30 0 -20 -5 -30 -15 -30 -8 0 -15 -7 -15 -15 0 -8 -7 -15
-15 -15 -8 0 -15 -7 -15 -15 0 -8 -7 -15 -15 -15 -11 0 -15 -12 -15 -45 0 -33
-4 -45 -15 -45 -8 0 -15 -7 -15 -15 0 -10 10 -15 30 -15 27 0 30 3 30 30 0 27
3 30 30 30 20 0 30 5 30 15 0 10 10 15 30 15 20 0 30 5 30 15 0 8 7 15 15 15
8 0 15 -7 15 -15 0 -8 -7 -15 -15 -15 -8 0 -15 -7 -15 -15 0 -8 -7 -15 -15
-15 -8 0 -15 -7 -15 -15 0 -8 -7 -15 -15 -15 -8 0 -15 -7 -15 -15 0 -8 -7 -15
-15 -15 -8 0 -15 -7 -15 -15 0 -8 -7 -15 -15 -15 -8 0 -15 -7 -15 -15 0 -8 -7
-15 -15 -15 -10 0 -15 -10 -15 -30 0 -20 -5 -30 -15 -30 -8 0 -15 7 -15 15 0
8 -7 15 -15 15 -10 0 -15 -10 -15 -30 0 -27 3 -30 30 -30 20 0 30 5 30 15 0 8
7 15 15 15 8 0 15 7 15 15 0 8 7 15 15 15 8 0 15 -7 15 -15 0 -8 -7 -15 -15
-15 -8 0 -15 -7 -15 -15 0 -10 10 -15 30 -15 20 0 30 5 30 15 0 8 7 15 15 15
8 0 15 -7 15 -15 0 -12 15 -15 75 -15 60 0 75 3 75 15 0 8 7 15 15 15 8 0 15
7 15 15 0 8 7 15 15 15 8 0 15 -7 15 -15 0 -11 12 -15 45 -15 33 0 45 -4 45
-15 0 -8 7 -15 15 -15 8 0 15 7 15 15 0 8 7 15 15 15 8 0 15 -7 15 -15 0 -10
10 -15 30 -15 20 0 30 5 30 15 0 8 7 15 15 15 8 0 15 -7 15 -15 0 -8 7 -15 15
-15 10 0 15 10 15 30 0 20 -5 30 -15 30 -8 0 -15 7 -15 15 0 8 -7 15 -15 15
-8 0 -15 7 -15 15 0 8 -7 15 -15 15 -8 0 -15 -7 -15 -15 0 -8 -7 -15 -15 -15
-8 0 -15 -7 -15 -15 0 -8 -7 -15 -15 -15 -8 0 -15 -7 -15 -15 0 -8 -7 -15 -15
-15 -10 0 -15 10 -15 30 l0 30 -75 0 c-60 0 -75 -3 -75 -15 0 -8 -7 -15 -15
-15 -8 0 -15 7 -15 15 0 8 7 15 15 15 8 0 15 7 15 15 0 10 10 15 30 15 20 0
30 5 30 15 0 8 7 15 15 15 8 0 15 7 15 15 0 8 -7 15 -15 15 -11 0 -15 12 -15
45 0 33 -4 45 -15 45 -8 0 -15 7 -15 15 0 10 10 15 30 15 20 0 30 5 30 15 0 8
7 15 15 15 8 0 15 -7 15 -15 0 -8 7 -15 15 -15 8 0 15 -7 15 -15 0 -10 -10
-15 -30 -15 -29 0 -30 -2 -30 -45 0 -33 4 -45 15 -45 8 0 15 -7 15 -15 0 -8
-7 -15 -15 -15 -8 0 -15 -7 -15 -15 0 -10 10 -15 30 -15 20 0 30 -5 30 -15 0
-8 7 -15 15 -15 8 0 15 7 15 15 0 8 7 15 15 15 8 0 15 7 15 15 0 8 -7 15 -15
15 -8 0 -15 7 -15 15 0 11 12 15 45 15 33 0 45 -4 45 -15 0 -8 7 -15 15 -15 8
0 15 -7 15 -15 0 -8 7 -15 15 -15 8 0 15 -7 15 -15 0 -8 7 -15 15 -15 10 0 15
10 15 30 0 29 2 30 45 30 33 0 45 4 45 15 0 8 -7 15 -15 15 -8 0 -15 7 -15 15
0 8 7 15 15 15 12 0 15 13 15 60 0 47 -3 60 -15 60 -8 0 -15 -7 -15 -15 0 -11
-12 -15 -45 -15 l-45 0 0 -45 c0 -33 -4 -45 -15 -45 -8 0 -15 -7 -15 -15 0 -8
-7 -15 -15 -15 -8 0 -15 7 -15 15 0 11 -12 15 -45 15 -33 0 -45 4 -45 15 0 11
12 15 45 15 33 0 45 4 45 15 0 10 -10 15 -30 15 -20 0 -30 5 -30 15 0 8 -7 15
-15 15 -8 0 -15 7 -15 15 0 8 7 15 15 15 8 0 15 7 15 15 0 8 7 15 15 15 10 0
15 -10 15 -30 0 -20 5 -30 15 -30 8 0 15 7 15 15 0 8 7 15 15 15 8 0 15 7 15
15 0 8 7 15 15 15 8 0 15 -7 15 -15 0 -10 10 -15 30 -15 20 0 30 5 30 15 0 12
13 15 60 15 47 0 60 -3 60 -15 0 -8 7 -15 15 -15 10 0 15 -10 15 -30 0 -20 -5
-30 -15 -30 -10 0 -15 10 -15 30 0 20 -5 30 -15 30 -10 0 -15 -10 -15 -30 0
-20 5 -30 15 -30 10 0 15 -10 15 -30 0 -27 -3 -30 -30 -30 -20 0 -30 -5 -30
-15 0 -8 7 -15 15 -15 11 0 15 -12 15 -45 0 -43 -1 -45 -30 -45 -27 0 -30 -3
-30 -30 0 -20 5 -30 15 -30 8 0 15 7 15 15 0 8 7 15 15 15 8 0 15 -7 15 -15 0
-8 7 -15 15 -15 8 0 15 -7 15 -15 0 -8 7 -15 15 -15 8 0 15 7 15 15 0 8 -7 15
-15 15 -11 0 -15 12 -15 45 0 33 4 45 15 45 8 0 15 7 15 15 0 8 -7 15 -15 15
-8 0 -15 7 -15 15 0 8 7 15 15 15 10 0 15 10 15 30 0 27 3 30 30 30 20 0 30
-5 30 -15 0 -8 7 -15 15 -15 8 0 15 -7 15 -15 0 -8 -7 -15 -15 -15 -8 0 -15
-7 -15 -15 0 -8 -7 -15 -15 -15 -8 0 -15 -7 -15 -15 0 -8 7 -15 15 -15 8 0 15
-7 15 -15 0 -10 -10 -15 -30 -15 -20 0 -30 -5 -30 -15 0 -10 10 -15 30 -15 20
0 30 5 30 15 0 8 7 15 15 15 8 0 15 7 15 15 0 8 7 15 15 15 10 0 15 -10 15
-30 0 -20 5 -30 15 -30 8 0 15 -7 15 -15 0 -8 -7 -15 -15 -15 -8 0 -15 -7 -15
-15 0 -8 7 -15 15 -15 8 0 15 7 15 15 0 8 7 15 15 15 8 0 15 -7 15 -15 0 -8 7
-15 15 -15 10 0 15 10 15 30 0 20 -5 30 -15 30 -8 0 -15 7 -15 15 0 11 12 15
45 15 33 0 45 -4 45 -15 0 -8 7 -15 15 -15 8 0 15 7 15 15 0 8 -7 15 -15 15
-8 0 -15 7 -15 15 0 8 -7 15 -15 15 -8 0 -15 7 -15 15 0 8 7 15 15 15 11 0 15
12 15 45 0 33 -4 45 -15 45 -8 0 -15 7 -15 15 0 8 7 15 15 15 8 0 15 7 15 15
0 8 7 15 15 15 8 0 15 7 15 15 0 8 -7 15 -15 15 -8 0 -15 7 -15 15 0 8 -7 15
-15 15 -8 0 -15 7 -15 15 0 8 7 15 15 15 8 0 15 7 15 15 0 10 10 15 30 15 20
0 30 -5 30 -15 0 -10 -10 -15 -30 -15 -20 0 -30 -5 -30 -15 0 -8 7 -15 15 -15
8 0 15 -7 15 -15 0 -8 7 -15 15 -15 8 0 15 7 15 15 0 8 7 15 15 15 11 0 15 12
15 45 l0 45 -45 0 c-33 0 -45 4 -45 15 0 8 7 15 15 15 8 0 15 7 15 15 0 8 -7
15 -15 15 -8 0 -15 7 -15 15 0 8 -7 15 -15 15 -11 0 -15 -12 -15 -45 0 -33 -4
-45 -15 -45 -8 0 -15 -7 -15 -15 0 -8 7 -15 15 -15 8 0 15 -7 15 -15 0 -8 -7
-15 -15 -15 -8 0 -15 -7 -15 -15 0 -8 -7 -15 -15 -15 -8 0 -15 -7 -15 -15 0
-8 -7 -15 -15 -15 -11 0 -15 12 -15 45 0 33 4 45 15 45 8 0 15 7 15 15 0 8 7
15 15 15 10 0 15 10 15 30 0 27 -3 30 -30 30 -20 0 -30 5 -30 15 0 8 -7 15
-15 15 -11 0 -15 -12 -15 -45 0 -33 4 -45 15 -45 8 0 15 -7 15 -15 0 -10 -10
-15 -30 -15 -20 0 -30 5 -30 15 0 8 -7 15 -15 15 -8 0 -15 -7 -15 -15 0 -8 -7
-15 -15 -15 -12 0 -15 13 -15 60 0 47 -3 60 -15 60 -8 0 -15 -7 -15 -15 0 -8
-7 -15 -15 -15 -8 0 -15 7 -15 15 0 8 7 15 15 15 8 0 15 7 15 15 0 8 7 15 15
15 8 0 15 7 15 15 0 8 -7 15 -15 15 -8 0 -15 7 -15 15 0 8 7 15 15 15 8 0 15
7 15 15 0 8 7 15 15 15 8 0 15 7 15 15 0 8 7 15 15 15 8 0 15 -7 15 -15 0 -8
7 -15 15 -15 8 0 15 -7 15 -15 0 -10 -10 -15 -30 -15 -29 0 -30 -2 -30 -45 0
-43 1 -45 30 -45 27 0 30 3 30 30 0 20 5 30 15 30 10 0 15 10 15 30 0 20 5 30
15 30 10 0 15 10 15 30 0 27 3 30 30 30 27 0 30 -3 30 -30 0 -27 3 -30 30 -30
20 0 30 -5 30 -15 0 -10 10 -15 30 -15 l30 0 0 60 0 60 -30 0 c-27 0 -30 -3
-30 -30 0 -20 -5 -30 -15 -30 -10 0 -15 10 -15 30 0 29 -2 30 -45 30 -43 0
-45 1 -45 30 l0 30 -60 0 c-47 0 -60 -3 -60 -15 0 -10 10 -15 30 -15 20 0 30
-5 30 -15 0 -8 7 -15 15 -15 11 0 15 -12 15 -45 0 -33 -4 -45 -15 -45 -8 0
-15 7 -15 15 0 8 -7 15 -15 15 -8 0 -15 7 -15 15 0 8 7 15 15 15 8 0 15 7 15
15 0 10 -10 15 -30 15 -27 0 -30 -3 -30 -30 0 -27 -3 -30 -30 -30 -27 0 -30
-3 -30 -30 0 -29 -2 -30 -45 -30 -33 0 -45 4 -45 15 0 10 10 15 30 15 20 0 30
5 30 15 0 10 -10 15 -30 15 -27 0 -30 3 -30 30 0 20 -5 30 -15 30 -10 0 -15
-10 -15 -30 0 -20 -5 -30 -15 -30 -10 0 -15 -10 -15 -30 0 -20 5 -30 15 -30 8
0 15 -7 15 -15 0 -11 12 -15 45 -15 43 0 45 -1 45 -30 0 -20 -5 -30 -15 -30
-8 0 -15 7 -15 15 0 10 -10 15 -30 15 -20 0 -30 -5 -30 -15 0 -10 -10 -15 -30
-15 -20 0 -30 5 -30 15 0 8 7 15 15 15 8 0 15 7 15 15 0 8 -7 15 -15 15 -11 0
-15 12 -15 45 0 33 4 45 15 45 11 0 15 12 15 45 0 33 -4 45 -15 45 -8 0 -15 7
-15 15 0 11 12 15 45 15 33 0 45 -4 45 -15 0 -10 10 -15 30 -15 20 0 30 -5 30
-15 0 -8 -7 -15 -15 -15 -8 0 -15 -7 -15 -15 0 -8 7 -15 15 -15 8 0 15 7 15
15 0 8 7 15 15 15 10 0 15 10 15 30 0 20 5 30 15 30 10 0 15 10 15 30 0 27 -3
30 -30 30 -20 0 -30 5 -30 15 0 10 -10 15 -30 15 -20 0 -30 -5 -30 -15 0 -10
10 -15 30 -15 20 0 30 -5 30 -15 0 -8 7 -15 15 -15 8 0 15 -7 15 -15 0 -11
-12 -15 -45 -15 -33 0 -45 4 -45 15 0 9 -10 15 -27 16 -16 1 -49 3 -75 4 -41
2 -48 0 -48 -16 0 -11 7 -19 15 -19 8 0 15 -7 15 -15 0 -10 -10 -15 -30 -15
-27 0 -30 3 -30 30 0 20 -5 30 -15 30 -10 0 -15 -10 -15 -30 0 -20 5 -30 15
-30 8 0 15 -7 15 -15 0 -8 -7 -15 -15 -15 -8 0 -15 -7 -15 -15 0 -8 7 -15 15
-15 8 0 15 -7 15 -15 0 -8 -7 -15 -15 -15 -10 0 -15 -10 -15 -30 0 -20 5 -30
15 -30 10 0 15 10 15 30 0 27 3 30 30 30 20 0 30 -5 30 -15 0 -8 -7 -15 -15
-15 -8 0 -15 -7 -15 -15 0 -8 7 -15 15 -15 8 0 15 -7 15 -15 0 -8 -7 -15 -15
-15 -8 0 -15 -7 -15 -15 0 -8 7 -15 15 -15 10 0 15 -10 15 -30 0 -20 -5 -30
-15 -30 -8 0 -15 7 -15 15 0 8 -7 15 -15 15 -8 0 -15 -7 -15 -15 0 -8 -7 -15
-15 -15 -8 0 -15 7 -15 15 0 8 7 15 15 15 10 0 15 10 15 30 0 20 -5 30 -15 30
-8 0 -15 -7 -15 -15 0 -8 -7 -15 -15 -15 -8 0 -15 7 -15 15 0 8 -7 15 -15 15
-8 0 -15 -7 -15 -15 0 -8 7 -15 15 -15 8 0 15 -7 15 -15 0 -10 -10 -15 -30
-15 -27 0 -30 3 -30 30 0 20 5 30 15 30 8 0 15 7 15 15 0 8 7 15 15 15 12 0
15 13 15 60 l0 60 -30 0 c-29 0 -30 -2 -30 -45 l0 -45 -45 0 c-33 0 -45 -4
-45 -15 0 -11 -12 -15 -45 -15 -33 0 -45 4 -45 15 0 8 7 15 15 15 8 0 15 7 15
15 0 8 7 15 15 15 8 0 15 7 15 15 0 8 7 15 15 15 8 0 15 -7 15 -15 0 -8 7 -15
15 -15 8 0 15 7 15 15 0 8 7 15 15 15 8 0 15 7 15 15 0 8 7 15 15 15 8 0 15 7
15 15 0 8 7 15 15 15 8 0 15 7 15 15 0 8 7 15 15 15 8 0 15 9 15 20 0 17 -6
20 -47 19 -27 -1 -40 -3 -30 -6 11 -3 17 -14 17 -34 0 -26 -4 -29 -30 -29 -27
0 -30 -3 -30 -30 0 -20 -5 -30 -15 -30 -11 0 -15 12 -15 45 0 33 4 45 15 45
27 0 16 28 -14 35 -17 3 -111 5 -210 3 -164 -3 -181 -5 -181 -20 0 -13 8 -18
30 -18 20 0 30 -5 30 -15 0 -10 -10 -15 -30 -15 -20 0 -30 -5 -30 -15 0 -11
-12 -15 -45 -15 -43 0 -45 -1 -45 -30 0 -20 -5 -30 -15 -30 -10 0 -15 10 -15
30 0 20 -5 30 -15 30 -8 0 -15 7 -15 15 0 12 13 15 60 15 47 0 60 3 60 15 0
10 -10 15 -30 15 -39 0 -41 27 -2 33 15 2 7 4 -18 3 l-45 -1 -3 73 c-2 39 -7
72 -12 72 -6 0 -10 7 -10 15 0 8 5 15 10 15 6 0 10 14 10 30 0 17 -4 30 -10
30 -5 0 -10 14 -10 30 0 20 5 30 15 30 10 0 15 10 15 30 0 27 -3 30 -30 30
-20 0 -30 -5 -30 -15 0 -8 7 -15 15 -15 8 0 15 -7 15 -15 0 -8 -7 -15 -15 -15
-8 0 -15 -7 -15 -15 0 -8 -7 -15 -15 -15 -11 0 -15 12 -15 45 0 33 -4 45 -15
45 -8 0 -15 7 -15 15 0 11 12 15 45 15 33 0 45 4 45 15 0 8 7 15 15 15 8 0 15
-7 15 -15 0 -10 10 -15 30 -15 20 0 30 5 30 15 0 8 7 15 15 15 8 0 15 7 15 15
0 8 7 15 15 15 8 0 15 -7 15 -15 0 -8 -7 -15 -15 -15 -8 0 -15 -7 -15 -15 0
-8 -7 -15 -15 -15 -8 0 -15 -7 -15 -15 0 -8 -7 -15 -15 -15 -8 0 -15 -7 -15
-15 0 -8 7 -15 15 -15 8 0 15 -7 15 -15 0 -8 -7 -15 -15 -15 -8 0 -15 -7 -15
-15 0 -10 10 -15 30 -15 20 0 30 5 30 15 0 8 7 15 15 15 8 0 15 7 15 15 0 8
-7 15 -15 15 -10 0 -15 10 -15 30 0 20 5 30 15 30 8 0 15 7 15 15 0 8 7 15 15
15 8 0 15 7 15 15 0 8 -7 15 -15 15 -8 0 -15 7 -15 15 0 8 -7 15 -15 15 -8 0
-15 7 -15 15 0 8 -7 15 -15 15 -8 0 -15 7 -15 15 0 8 -7 15 -15 15 -8 0 -15 7
-15 15 0 10 10 15 30 15 27 0 30 -3 30 -30 0 -20 5 -30 15 -30 10 0 15 10 15
30 0 27 3 30 30 30 27 0 30 3 30 30 0 27 3 30 30 30 29 0 30 -2 30 -45 0 -43
-1 -45 -30 -45 -20 0 -30 -5 -30 -15 0 -8 7 -15 15 -15 8 0 15 -7 15 -15 0 -8
7 -15 15 -15 8 0 15 -7 15 -15 0 -8 -7 -15 -15 -15 -11 0 -15 -12 -15 -45 0
-33 -4 -45 -15 -45 -8 0 -15 7 -15 15 0 8 -7 15 -15 15 -11 0 -15 -12 -15 -45
0 -33 4 -45 15 -45 8 0 15 -7 15 -15 0 -8 7 -15 15 -15 8 0 15 7 15 15 0 8 7
15 15 15 8 0 15 7 15 15 0 8 -7 15 -15 15 -8 0 -15 7 -15 15 0 8 7 15 15 15
10 0 15 10 15 30 0 27 3 30 30 30 20 0 30 5 30 15 0 8 -7 15 -15 15 -8 0 -15
7 -15 15 0 8 7 15 15 15 8 0 15 7 15 15 0 8 7 15 15 15 10 0 15 10 15 30 0 20
-5 30 -15 30 -10 0 -15 -10 -15 -30 0 -20 -5 -30 -15 -30 -12 0 -15 13 -15 60
0 47 3 60 15 60 8 0 15 7 15 15 0 8 7 15 15 15 8 0 15 -7 15 -15 0 -8 -7 -15
-15 -15 -8 0 -15 -7 -15 -15 0 -10 10 -15 30 -15 27 0 30 -3 30 -30 0 -20 5
-30 15 -30 8 0 15 -7 15 -15 0 -8 -7 -15 -15 -15 -8 0 -15 -7 -15 -15 0 -8 -7
-15 -15 -15 -10 0 -15 -10 -15 -30 0 -20 -5 -30 -15 -30 -8 0 -15 -7 -15 -15
0 -8 -7 -15 -15 -15 -10 0 -15 -10 -15 -30 0 -20 5 -30 15 -30 10 0 15 -10 15
-30 0 -20 5 -30 15 -30 10 0 15 10 15 30 0 20 -5 30 -15 30 -8 0 -15 7 -15 15
0 8 7 15 15 15 8 0 15 7 15 15 0 8 7 15 15 15 8 0 15 -7 15 -15 0 -8 7 -15 15
-15 8 0 15 7 15 15 0 8 7 15 15 15 8 0 15 7 15 15 0 8 -7 15 -15 15 -8 0 -15
7 -15 15 0 8 -7 15 -15 15 -8 0 -15 7 -15 15 0 8 7 15 15 15 8 0 15 -7 15 -15
0 -8 7 -15 15 -15 8 0 15 -7 15 -15 0 -8 7 -15 15 -15 10 0 15 -10 15 -30 0
-20 -5 -30 -15 -30 -8 0 -15 -7 -15 -15 0 -8 -7 -15 -15 -15 -8 0 -15 -7 -15
-15 0 -8 -7 -15 -15 -15 -8 0 -15 -7 -15 -15 0 -10 10 -15 30 -15 20 0 30 5
30 15 0 8 7 15 15 15 10 0 15 10 15 30 0 29 2 30 45 30 l45 0 0 45 c0 33 -4
45 -15 45 -10 0 -15 -10 -15 -30 0 -20 -5 -30 -15 -30 -10 0 -15 10 -15 30 0
20 -5 30 -15 30 -8 0 -15 7 -15 15 0 8 7 15 15 15 8 0 15 7 15 15 0 8 7 15 15
15 11 0 15 12 15 45 0 33 4 45 15 45 8 0 15 7 15 15 0 8 7 15 15 15 8 0 15 -7
15 -15 0 -8 -7 -15 -15 -15 -10 0 -15 -10 -15 -30 0 -27 3 -30 30 -30 20 0 30
5 30 15 0 8 -7 15 -15 15 -8 0 -15 7 -15 15 0 8 7 15 15 15 8 0 15 7 15 15 0
8 7 15 15 15 8 0 15 -7 15 -15 0 -8 7 -15 15 -15 8 0 15 7 15 15 0 8 -7 15
-15 15 -10 0 -15 10 -15 30 0 20 5 30 15 30 8 0 15 -7 15 -15 0 -8 7 -15 15
-15 8 0 15 7 15 15 0 8 7 15 15 15 10 0 15 -10 15 -30 0 -20 -5 -30 -15 -30
-8 0 -15 -7 -15 -15 0 -8 7 -15 15 -15 8 0 15 7 15 15 0 8 7 15 15 15 8 0 15
-7 15 -15 0 -8 7 -15 15 -15 8 0 15 -7 15 -15 0 -8 7 -15 15 -15 8 0 15 -7 15
-15 0 -8 7 -15 15 -15 8 0 15 -7 15 -15 0 -8 -7 -15 -15 -15 -8 0 -15 -7 -15
-15 0 -8 -7 -15 -15 -15 -8 0 -15 7 -15 15 0 8 -7 15 -15 15 -8 0 -15 -7 -15
-15 0 -8 -7 -15 -15 -15 -8 0 -15 7 -15 15 0 8 7 15 15 15 8 0 15 7 15 15 0 8
7 15 15 15 8 0 15 7 15 15 0 11 -12 15 -45 15 -33 0 -45 -4 -45 -15 0 -8 -7
-15 -15 -15 -8 0 -15 7 -15 15 0 8 -7 15 -15 15 -10 0 -15 -10 -15 -30 0 -20
5 -30 15 -30 8 0 15 -7 15 -15 0 -8 7 -15 15 -15 11 0 15 -12 15 -45 0 -33 4
-45 15 -45 8 0 15 -7 15 -15 0 -8 -7 -15 -15 -15 -8 0 -15 -7 -15 -15 0 -8 7
-15 15 -15 8 0 15 -7 15 -15 0 -8 -7 -15 -15 -15 -8 0 -15 -7 -15 -15 0 -12
18 -15 105 -15 87 0 105 -3 105 -15 0 -10 10 -15 30 -15 27 0 30 -3 30 -30 0
-27 3 -30 30 -30 20 0 30 -5 30 -15 0 -8 7 -15 15 -15 10 0 15 -10 15 -30 0
-20 5 -30 15 -30 8 0 15 -7 15 -15 0 -8 -7 -15 -15 -15 -8 0 -15 7 -15 15 0
10 -10 15 -30 15 -27 0 -30 3 -30 30 0 20 -5 30 -15 30 -8 0 -15 -7 -15 -15 0
-8 -7 -15 -15 -15 -8 0 -15 7 -15 15 0 8 7 15 15 15 8 0 15 7 15 15 0 8 -7 15
-15 15 -8 0 -15 7 -15 15 0 8 -7 15 -15 15 -12 0 -15 -13 -15 -60 l0 -60 30 0
c20 0 30 -5 30 -15 0 -10 10 -15 30 -15 20 0 30 -5 30 -15 0 -8 7 -15 15 -15
8 0 15 -7 15 -15 0 -12 17 -15 90 -15 73 0 90 3 90 15 0 8 7 15 15 15 8 0 15
-7 15 -15 0 -8 7 -15 15 -15 8 0 15 -7 15 -15 0 -8 7 -15 15 -15 8 0 15 -7 15
-15 0 -8 7 -15 15 -15 8 0 15 7 15 15 0 8 -7 15 -15 15 -10 0 -15 10 -15 30 0
20 5 30 15 30 10 0 15 10 15 30 0 20 -5 30 -15 30 -8 0 -15 7 -15 15 0 8 7 15
15 15 10 0 15 10 15 30 0 20 -5 30 -15 30 -10 0 -15 -10 -15 -30 0 -20 -5 -30
-15 -30 -8 0 -15 -7 -15 -15 0 -8 7 -15 15 -15 10 0 15 -10 15 -30 0 -27 -3
-30 -30 -30 -20 0 -30 5 -30 15 0 8 -7 15 -15 15 -10 0 -15 10 -15 30 0 20 5
30 15 30 8 0 15 7 15 15 0 8 -7 15 -15 15 -8 0 -15 7 -15 15 0 10 -10 15 -30
15 -20 0 -30 -5 -30 -15 0 -8 -7 -15 -15 -15 -10 0 -15 10 -15 30 0 20 5 30
15 30 10 0 15 10 15 30 0 29 2 30 45 30 33 0 45 -4 45 -15 0 -8 -7 -15 -15
-15 -10 0 -15 -10 -15 -30 0 -27 3 -30 30 -30 20 0 30 5 30 15 0 8 -7 15 -15
15 -8 0 -15 7 -15 15 0 10 10 15 30 15 20 0 30 5 30 15 0 10 -10 15 -30 15
-20 0 -30 5 -30 15 0 11 12 15 45 15 l45 0 0 75 c0 60 -3 75 -15 75 -8 0 -15
7 -15 15 0 8 7 15 15 15 11 0 15 12 15 45 0 33 -4 45 -15 45 -8 0 -15 -7 -15
-15 0 -8 -7 -15 -15 -15 -8 0 -15 -7 -15 -15 0 -8 -7 -15 -15 -15 -8 0 -15 -7
-15 -15 0 -8 7 -15 15 -15 8 0 15 -7 15 -15 0 -8 7 -15 15 -15 12 0 15 -13 15
-60 l0 -60 -30 0 c-20 0 -30 5 -30 15 0 8 7 15 15 15 8 0 15 7 15 15 0 8 -7
15 -15 15 -8 0 -15 7 -15 15 0 8 7 15 15 15 8 0 15 7 15 15 0 10 -10 15 -30
15 -20 0 -30 5 -30 15 0 8 -7 15 -15 15 -8 0 -15 -7 -15 -15 0 -8 -7 -15 -15
-15 -10 0 -15 10 -15 30 0 29 2 30 45 30 33 0 45 4 45 15 0 8 7 15 15 15 8 0
15 7 15 15 0 8 -7 15 -15 15 -10 0 -15 10 -15 30 0 20 -5 30 -15 30 -8 0 -15
7 -15 15 0 10 10 15 30 15 20 0 30 5 30 15 0 8 7 15 15 15 11 0 15 -12 15 -45
0 -33 4 -45 15 -45 11 0 15 12 15 45 0 33 -4 45 -15 45 -8 0 -15 7 -15 15 0 8
7 15 15 15 8 0 15 7 15 15 0 8 -7 15 -15 15 -8 0 -15 -7 -15 -15 0 -8 -7 -15
-15 -15 -8 0 -15 -7 -15 -15 0 -8 -7 -15 -15 -15 -8 0 -15 7 -15 15 0 8 -7 15
-15 15 -8 0 -15 7 -15 15 0 10 -10 15 -30 15 -20 0 -30 -5 -30 -15 0 -8 -7
-15 -15 -15 -8 0 -15 -7 -15 -15 0 -8 -7 -15 -15 -15 -12 0 -15 -13 -15 -60 0
-47 3 -60 15 -60 12 0 15 -13 15 -60 0 -47 -3 -60 -15 -60 -10 0 -15 -10 -15
-30 0 -20 5 -30 15 -30 8 0 15 -7 15 -15 0 -8 -7 -15 -15 -15 -8 0 -15 -7 -15
-15 0 -8 7 -15 15 -15 12 0 15 -13 15 -60 0 -47 -3 -60 -15 -60 -10 0 -15 -10
-15 -30 0 -20 -5 -30 -15 -30 -8 0 -15 7 -15 15 0 8 -7 15 -15 15 -8 0 -15 7
-15 15 0 8 7 15 15 15 8 0 15 7 15 15 0 8 7 15 15 15 8 0 15 7 15 15 0 8 -7
15 -15 15 -8 0 -15 -7 -15 -15 0 -8 -7 -15 -15 -15 -8 0 -15 -7 -15 -15 0 -10
-10 -15 -30 -15 -20 0 -30 5 -30 15 0 8 7 15 15 15 8 0 15 7 15 15 0 12 -13
15 -60 15 -47 0 -60 3 -60 15 0 8 7 15 15 15 8 0 15 7 15 15 0 8 -7 15 -15 15
-11 0 -15 12 -15 45 0 43 -1 45 -30 45 -20 0 -30 5 -30 15 0 8 7 15 15 15 11
0 15 12 15 45 0 33 -4 45 -15 45 -10 0 -15 10 -15 30 0 20 -5 30 -15 30 -8 0
-15 7 -15 15 0 10 10 15 30 15 27 0 30 -3 30 -30 0 -20 5 -30 15 -30 8 0 15
-7 15 -15 0 -8 7 -15 15 -15 11 0 15 -12 15 -45 0 -33 4 -45 15 -45 8 0 15 -7
15 -15 0 -8 -7 -15 -15 -15 -8 0 -15 -7 -15 -15 0 -8 7 -15 15 -15 11 0 15
-12 15 -45 l0 -45 45 0 c33 0 45 4 45 15 0 8 7 15 15 15 8 0 15 7 15 15 0 8 7
15 15 15 8 0 15 7 15 15 0 8 -7 15 -15 15 -11 0 -15 12 -15 45 0 33 4 45 15
45 10 0 15 10 15 30 0 27 -3 30 -30 30 -20 0 -30 -5 -30 -15 0 -8 -7 -15 -15
-15 -8 0 -15 -7 -15 -15 0 -8 7 -15 15 -15 10 0 15 -10 15 -30 0 -20 -5 -30
-15 -30 -8 0 -15 -7 -15 -15 0 -10 10 -15 30 -15 20 0 30 -5 30 -15 0 -8 -7
-15 -15 -15 -8 0 -15 -7 -15 -15 0 -10 -10 -15 -30 -15 -27 0 -30 3 -30 30 0
20 -5 30 -15 30 -8 0 -15 7 -15 15 0 8 7 15 15 15 8 0 15 7 15 15 0 8 7 15 15
15 8 0 15 7 15 15 0 8 -7 15 -15 15 -8 0 -15 7 -15 15 0 8 7 15 15 15 8 0 15
7 15 15 0 8 -7 15 -15 15 -8 0 -15 7 -15 15 0 11 -12 15 -45 15 l-45 0 0 45
c0 33 4 45 15 45 8 0 15 -7 15 -15 0 -8 7 -15 15 -15 8 0 15 -7 15 -15 0 -8 7
-15 15 -15 8 0 15 -7 15 -15 0 -8 7 -15 15 -15 10 0 15 10 15 30 0 27 -3 30
-30 30 -20 0 -30 5 -30 15 0 11 12 15 45 15 33 0 45 -4 45 -15 0 -8 7 -15 15
-15 8 0 15 7 15 15 0 8 -7 15 -15 15 -8 0 -15 7 -15 15 0 8 7 15 15 15 8 0 15
7 15 15 0 8 7 15 15 15 8 0 15 7 15 15 0 8 -7 15 -15 15 -8 0 -15 7 -15 15 0
8 7 15 15 15 8 0 15 7 15 15 0 8 -7 15 -15 15 -8 0 -15 -7 -15 -15 0 -8 -7
-15 -15 -15 -10 0 -15 10 -15 30 0 20 5 30 15 30 8 0 15 7 15 15 0 8 7 15 15
15 12 0 15 13 15 60 l0 60 -30 0 c-27 0 -30 -3 -30 -30 0 -20 -5 -30 -15 -30
-10 0 -15 -10 -15 -30 0 -20 -5 -30 -15 -30 -11 0 -15 12 -15 45 0 33 4 45 15
45 8 0 15 7 15 15 0 11 -12 15 -45 15 -33 0 -45 -4 -45 -15 0 -8 -7 -15 -15
-15 -8 0 -15 7 -15 15 0 8 -7 15 -15 15 -8 0 -15 -7 -15 -15 0 -8 7 -15 15
-15 8 0 15 -7 15 -15 0 -8 -7 -15 -15 -15 -8 0 -15 -7 -15 -15 0 -8 7 -15 15
-15 8 0 15 7 15 15 0 8 7 15 15 15 8 0 15 -7 15 -15 0 -8 7 -15 15 -15 8 0 15
-7 15 -15 0 -8 -7 -15 -15 -15 -8 0 -15 -7 -15 -15 0 -8 -7 -15 -15 -15 -8 0
-15 7 -15 15 0 10 -10 15 -30 15 -20 0 -30 5 -30 15 0 8 -7 15 -15 15 -8 0
-15 7 -15 15 0 8 -7 15 -15 15 -8 0 -15 -7 -15 -15 0 -8 -7 -15 -15 -15 -8 0
-15 7 -15 15 0 8 -7 15 -15 15 -8 0 -15 7 -15 15 0 12 13 15 60 15 47 0 60 3
60 15 0 12 -13 15 -60 15 -47 0 -60 -3 -60 -15 0 -8 -7 -15 -15 -15 -8 0 -15
-7 -15 -15 0 -8 7 -15 15 -15 8 0 15 -7 15 -15 0 -8 -7 -15 -15 -15 -8 0 -15
-7 -15 -15 0 -8 7 -15 15 -15 8 0 15 7 15 15 0 8 7 15 15 15 8 0 15 -7 15 -15
0 -8 7 -15 15 -15 8 0 15 -7 15 -15 0 -11 -12 -15 -45 -15 -33 0 -45 -4 -45
-15 0 -8 -7 -15 -15 -15 -8 0 -15 -7 -15 -15 0 -8 7 -15 15 -15 8 0 15 7 15
15 0 8 7 15 15 15 10 0 15 -10 15 -30 0 -20 5 -30 15 -30 8 0 15 -7 15 -15 0
-8 7 -15 15 -15 8 0 15 -7 15 -15 0 -8 7 -15 15 -15 8 0 15 7 15 15 0 8 7 15
15 15 8 0 15 7 15 15 0 8 -7 15 -15 15 -11 0 -15 12 -15 45 l0 45 45 0 c43 0
45 -1 45 -30 0 -20 5 -30 15 -30 11 0 15 -12 15 -45 0 -33 -4 -45 -15 -45 -8
0 -15 -7 -15 -15 0 -12 -13 -15 -60 -15 -47 0 -60 3 -60 15 0 10 -10 15 -30
15 -20 0 -30 5 -30 15 0 8 -7 15 -15 15 -8 0 -15 -7 -15 -15 0 -8 -7 -15 -15
-15 -10 0 -15 10 -15 30 0 20 -5 30 -15 30 -10 0 -15 10 -15 30 0 20 -5 30
-15 30 -10 0 -15 10 -15 30 0 20 5 30 15 30 8 0 15 -7 15 -15 0 -8 7 -15 15
-15 8 0 15 7 15 15 0 8 -7 15 -15 15 -8 0 -15 7 -15 15 0 8 -7 15 -15 15 -8 0
-15 7 -15 15 0 8 7 15 15 15 8 0 15 7 15 15 0 8 7 15 15 15 8 0 15 7 15 15 0
11 -12 15 -45 15 -33 0 -45 -4 -45 -15 0 -12 -13 -15 -60 -15 -47 0 -60 3 -60
15 0 8 -7 15 -15 15 -10 0 -15 -10 -15 -30 0 -20 -5 -30 -15 -30 -8 0 -15 -7
-15 -15 0 -10 -10 -15 -30 -15 -20 0 -30 5 -30 15 0 8 -7 15 -15 15 -10 0 -15
10 -15 30 l0 30 -60 0 c-47 0 -60 -3 -60 -15 0 -8 -7 -15 -15 -15 -8 0 -15 7
-15 15 0 8 -7 15 -15 15 -8 0 -15 -7 -15 -15z m120 -45 c0 -20 -5 -30 -15 -30
-10 0 -15 10 -15 30 0 20 5 30 15 30 10 0 15 -10 15 -30z m270 -15 c0 -8 7
-15 15 -15 8 0 15 7 15 15 0 8 7 15 15 15 8 0 15 -7 15 -15 0 -8 7 -15 15 -15
8 0 15 -7 15 -15 0 -8 -7 -15 -15 -15 -10 0 -15 -10 -15 -30 0 -20 -5 -30 -15
-30 -8 0 -15 -7 -15 -15 0 -8 -7 -15 -15 -15 -10 0 -15 10 -15 30 0 20 5 30
15 30 8 0 15 7 15 15 0 12 -13 15 -60 15 -47 0 -60 3 -60 15 0 10 10 15 30 15
20 0 30 5 30 15 0 8 7 15 15 15 8 0 15 -7 15 -15z m-210 -30 c0 -10 10 -15 30
-15 20 0 30 -5 30 -15 0 -10 -10 -15 -30 -15 -20 0 -30 5 -30 15 0 8 -7 15
-15 15 -8 0 -15 7 -15 15 0 8 7 15 15 15 8 0 15 -7 15 -15z m780 0 c0 -8 -7
-15 -15 -15 -8 0 -15 7 -15 15 0 8 7 15 15 15 8 0 15 -7 15 -15z m-810 -60 c0
-8 7 -15 15 -15 8 0 15 -7 15 -15 0 -8 7 -15 15 -15 8 0 15 7 15 15 0 8 7 15
15 15 10 0 15 -10 15 -30 0 -27 -3 -30 -30 -30 -20 0 -30 -5 -30 -15 0 -11
-12 -15 -45 -15 -33 0 -45 4 -45 15 0 11 12 15 45 15 33 0 45 4 45 15 0 8 -7
15 -15 15 -8 0 -15 7 -15 15 0 8 -7 15 -15 15 -8 0 -15 -7 -15 -15 0 -8 -7
-15 -15 -15 -8 0 -15 7 -15 15 0 8 7 15 15 15 8 0 15 7 15 15 0 8 7 15 15 15
8 0 15 -7 15 -15z m210 -30 l0 -45 -45 0 -45 0 0 45 0 45 45 0 45 0 0 -45z
m480 15 c0 -20 5 -30 15 -30 8 0 15 7 15 15 0 8 7 15 15 15 8 0 15 -7 15 -15
0 -8 7 -15 15 -15 8 0 15 -7 15 -15 0 -8 7 -15 15 -15 8 0 15 -7 15 -15 0 -8
-7 -15 -15 -15 -8 0 -15 -7 -15 -15 0 -10 -10 -15 -30 -15 -27 0 -30 3 -30 30
0 20 -5 30 -15 30 -8 0 -15 7 -15 15 0 8 -7 15 -15 15 -10 0 -15 10 -15 30 0
20 5 30 15 30 10 0 15 -10 15 -30z m-360 -30 c0 -20 -5 -30 -15 -30 -11 0 -15
-12 -15 -45 0 -33 4 -45 15 -45 8 0 15 -7 15 -15 0 -8 -7 -15 -15 -15 -8 0
-15 7 -15 15 0 8 -7 15 -15 15 -8 0 -15 -7 -15 -15 0 -8 -7 -15 -15 -15 -8 0
-15 -7 -15 -15 0 -8 -7 -15 -15 -15 -8 0 -15 -7 -15 -15 0 -8 -7 -15 -15 -15
-8 0 -15 7 -15 15 0 8 -7 15 -15 15 -8 0 -15 -7 -15 -15 0 -8 -7 -15 -15 -15
-8 0 -15 7 -15 15 0 8 7 15 15 15 8 0 15 7 15 15 0 11 12 15 45 15 33 0 45 4
45 15 0 8 7 15 15 15 8 0 15 7 15 15 0 8 -7 15 -15 15 -8 0 -15 -7 -15 -15 0
-10 -10 -15 -30 -15 -20 0 -30 5 -30 15 0 8 -7 15 -15 15 -8 0 -15 -7 -15 -15
0 -8 -7 -15 -15 -15 -8 0 -15 -7 -15 -15 0 -8 -7 -15 -15 -15 -8 0 -15 7 -15
15 0 8 7 15 15 15 8 0 15 7 15 15 0 8 7 15 15 15 8 0 15 7 15 15 0 12 13 15
60 15 l60 0 0 30 c0 20 5 30 15 30 8 0 15 7 15 15 0 8 7 15 15 15 10 0 15 -10
15 -30z m180 0 c0 -20 -5 -30 -15 -30 -10 0 -15 10 -15 30 0 20 5 30 15 30 10
0 15 -10 15 -30z m420 -75 c0 -8 7 -15 15 -15 8 0 15 -7 15 -15 0 -8 -7 -15
-15 -15 -8 0 -15 -7 -15 -15 0 -8 7 -15 15 -15 11 0 15 -12 15 -45 0 -33 -4
-45 -15 -45 -11 0 -15 12 -15 45 0 43 -1 45 -30 45 -27 0 -30 3 -30 30 0 20 5
30 15 30 8 0 15 7 15 15 0 8 7 15 15 15 8 0 15 -7 15 -15z m-1620 -105 c0 -20
-5 -30 -15 -30 -10 0 -15 10 -15 30 0 20 5 30 15 30 10 0 15 -10 15 -30z m180
15 c0 -8 7 -15 15 -15 8 0 15 -7 15 -15 0 -8 7 -15 15 -15 8 0 15 -7 15 -15 0
-8 7 -15 15 -15 11 0 15 -12 15 -45 0 -33 -4 -45 -15 -45 -10 0 -15 -10 -15
-30 0 -20 5 -30 15 -30 10 0 15 -10 15 -30 0 -20 5 -30 15 -30 10 0 15 -10 15
-30 0 -20 5 -30 15 -30 10 0 15 -10 15 -30 0 -20 -5 -30 -15 -30 -8 0 -15 7
-15 15 0 8 -7 15 -15 15 -8 0 -15 7 -15 15 0 8 -7 15 -15 15 -8 0 -15 -7 -15
-15 0 -8 -7 -15 -15 -15 -10 0 -15 -10 -15 -30 0 -27 3 -30 30 -30 29 0 30 -2
30 -45 0 -33 -4 -45 -15 -45 -8 0 -15 -7 -15 -15 0 -8 7 -15 15 -15 8 0 15 -7
15 -15 0 -8 7 -15 15 -15 8 0 15 7 15 15 0 8 7 15 15 15 8 0 15 -7 15 -15 0
-8 -7 -15 -15 -15 -8 0 -15 -7 -15 -15 0 -10 -10 -15 -30 -15 -27 0 -30 3 -30
30 0 20 -5 30 -15 30 -10 0 -15 10 -15 30 0 20 5 30 15 30 8 0 15 7 15 15 0
10 -10 15 -30 15 -20 0 -30 5 -30 15 0 8 -7 15 -15 15 -8 0 -15 -7 -15 -15 0
-8 -7 -15 -15 -15 -8 0 -15 7 -15 15 0 8 7 15 15 15 8 0 15 7 15 15 0 8 -7 15
-15 15 -8 0 -15 7 -15 15 0 8 7 15 15 15 8 0 15 7 15 15 0 10 10 15 30 15 20
0 30 5 30 15 0 8 -7 15 -15 15 -10 0 -15 10 -15 30 0 20 5 30 15 30 8 0 15 -7
15 -15 0 -8 7 -15 15 -15 10 0 15 10 15 30 l0 30 -60 0 c-47 0 -60 3 -60 15 0
8 7 15 15 15 8 0 15 7 15 15 0 8 7 15 15 15 8 0 15 -7 15 -15 0 -8 7 -15 15
-15 8 0 15 7 15 15 0 8 -7 15 -15 15 -8 0 -15 7 -15 15 0 10 10 15 30 15 20 0
30 5 30 15 0 8 -7 15 -15 15 -8 0 -15 7 -15 15 0 8 -7 15 -15 15 -8 0 -15 -7
-15 -15 0 -10 -10 -15 -30 -15 -20 0 -30 5 -30 15 0 8 -7 15 -15 15 -8 0 -15
7 -15 15 0 8 7 15 15 15 8 0 15 7 15 15 0 8 7 15 15 15 8 0 15 7 15 15 0 8 7
15 15 15 8 0 15 -7 15 -15z m-180 -90 c0 -8 7 -15 15 -15 8 0 15 7 15 15 0 8
7 15 15 15 8 0 15 -7 15 -15 0 -8 -7 -15 -15 -15 -8 0 -15 -7 -15 -15 0 -10
-10 -15 -30 -15 -27 0 -30 3 -30 30 0 20 5 30 15 30 8 0 15 -7 15 -15z m900 0
c0 -8 -7 -15 -15 -15 -8 0 -15 -7 -15 -15 0 -10 -10 -15 -30 -15 -20 0 -30 5
-30 15 0 8 7 15 15 15 8 0 15 7 15 15 0 10 10 15 30 15 20 0 30 -5 30 -15z
m-540 -30 c0 -8 -7 -15 -15 -15 -8 0 -15 -7 -15 -15 0 -8 -7 -15 -15 -15 -8 0
-15 7 -15 15 0 8 7 15 15 15 8 0 15 7 15 15 0 8 7 15 15 15 8 0 15 -7 15 -15z
m1140 0 c0 -8 -7 -15 -15 -15 -8 0 -15 7 -15 15 0 8 7 15 15 15 8 0 15 -7 15
-15z m-1350 -30 c0 -8 -7 -15 -15 -15 -8 0 -15 -7 -15 -15 0 -8 -7 -15 -15
-15 -8 0 -15 -7 -15 -15 0 -8 7 -15 15 -15 8 0 15 -7 15 -15 0 -8 7 -15 15
-15 8 0 15 -7 15 -15 0 -8 -7 -15 -15 -15 -8 0 -15 -7 -15 -15 0 -8 7 -15 15
-15 8 0 15 -7 15 -15 0 -8 -7 -15 -15 -15 -8 0 -15 -7 -15 -15 0 -8 -7 -15
-15 -15 -8 0 -15 -7 -15 -15 0 -8 -7 -15 -15 -15 -8 0 -15 7 -15 15 0 8 7 15
15 15 8 0 15 7 15 15 0 8 -7 15 -15 15 -10 0 -15 10 -15 30 0 20 5 30 15 30 8
0 15 7 15 15 0 8 -7 15 -15 15 -8 0 -15 -7 -15 -15 0 -8 -7 -15 -15 -15 -8 0
-15 7 -15 15 0 8 -7 15 -15 15 -8 0 -15 7 -15 15 0 8 -7 15 -15 15 -10 0 -15
10 -15 30 0 20 5 30 15 30 10 0 15 -10 15 -30 0 -27 3 -30 30 -30 20 0 30 5
30 15 0 8 -7 15 -15 15 -8 0 -15 7 -15 15 0 8 7 15 15 15 8 0 15 7 15 15 0 11
12 15 45 15 33 0 45 -4 45 -15z m330 -15 c0 -27 -3 -30 -30 -30 -20 0 -30 5
-30 15 0 8 7 15 15 15 8 0 15 7 15 15 0 8 7 15 15 15 10 0 15 -10 15 -30z
m750 -15 c0 -8 -7 -15 -15 -15 -8 0 -15 -7 -15 -15 0 -10 -10 -15 -30 -15 -27
0 -30 3 -30 30 0 29 2 30 45 30 33 0 45 -4 45 -15z m360 0 c0 -8 7 -15 15 -15
8 0 15 7 15 15 0 8 7 15 15 15 8 0 15 -7 15 -15 0 -8 -7 -15 -15 -15 -8 0 -15
-7 -15 -15 0 -10 10 -15 30 -15 20 0 30 -5 30 -15 0 -10 -10 -15 -30 -15 -20
0 -30 -5 -30 -15 0 -10 10 -15 30 -15 20 0 30 -5 30 -15 0 -11 -12 -15 -45
-15 l-45 0 0 60 c0 47 -3 60 -15 60 -8 0 -15 7 -15 15 0 8 7 15 15 15 8 0 15
-7 15 -15z m-300 -75 c0 -20 5 -30 15 -30 8 0 15 -7 15 -15 0 -10 -10 -15 -30
-15 -27 0 -30 3 -30 30 0 27 -3 30 -30 30 -20 0 -30 -5 -30 -15 0 -8 7 -15 15
-15 8 0 15 -7 15 -15 0 -8 -7 -15 -15 -15 -8 0 -15 7 -15 15 0 8 -7 15 -15 15
-8 0 -15 7 -15 15 0 8 7 15 15 15 8 0 15 7 15 15 0 11 12 15 45 15 43 0 45 -1
45 -30z m-660 -45 c0 -8 -7 -15 -15 -15 -8 0 -15 7 -15 15 0 8 7 15 15 15 8 0
15 -7 15 -15z m-240 -90 c0 -8 -7 -15 -15 -15 -8 0 -15 7 -15 15 0 8 7 15 15
15 8 0 15 -7 15 -15z m-360 -60 c0 -8 -7 -15 -15 -15 -8 0 -15 7 -15 15 0 8 7
15 15 15 8 0 15 -7 15 -15z m60 0 c0 -8 -7 -15 -15 -15 -8 0 -15 7 -15 15 0 8
7 15 15 15 8 0 15 -7 15 -15z m270 0 c0 -8 -7 -15 -15 -15 -8 0 -15 7 -15 15
0 8 7 15 15 15 8 0 15 -7 15 -15z m-180 -90 l0 -45 -45 0 -45 0 0 45 0 45 45
0 45 0 0 -45z m180 30 c0 -8 7 -15 15 -15 10 0 15 -10 15 -30 0 -20 -5 -30
-15 -30 -10 0 -15 10 -15 30 0 27 -3 30 -30 30 -20 0 -30 5 -30 15 0 10 10 15
30 15 20 0 30 -5 30 -15z m1260 -30 l0 -45 -45 0 -45 0 0 45 0 45 45 0 45 0 0
-45z m-1380 -90 c0 -8 7 -15 15 -15 10 0 15 -10 15 -30 0 -20 -5 -30 -15 -30
-8 0 -15 -7 -15 -15 0 -8 -7 -15 -15 -15 -11 0 -15 12 -15 45 0 33 -4 45 -15
45 -8 0 -15 -7 -15 -15 0 -8 -7 -15 -15 -15 -8 0 -15 -7 -15 -15 0 -8 7 -15
15 -15 8 0 15 -7 15 -15 0 -8 7 -15 15 -15 8 0 15 -7 15 -15 0 -8 -7 -15 -15
-15 -8 0 -15 -7 -15 -15 0 -8 -7 -15 -15 -15 -8 0 -15 7 -15 15 0 8 -7 15 -15
15 -8 0 -15 -7 -15 -15 0 -8 7 -15 15 -15 8 0 15 -7 15 -15 0 -10 -10 -15 -30
-15 -20 0 -30 -5 -30 -15 0 -11 12 -15 45 -15 33 0 45 -4 45 -15 0 -8 7 -15
15 -15 8 0 15 7 15 15 0 8 7 15 15 15 10 0 15 -10 15 -30 0 -20 -5 -30 -15
-30 -8 0 -15 -7 -15 -15 0 -8 -7 -15 -15 -15 -8 0 -15 -7 -15 -15 0 -8 -7 -15
-15 -15 -8 0 -15 7 -15 15 0 8 -7 15 -15 15 -8 0 -15 7 -15 15 0 8 7 15 15 15
8 0 15 -7 15 -15 0 -8 7 -15 15 -15 10 0 15 10 15 30 0 29 -2 30 -45 30 -33 0
-45 -4 -45 -15 0 -8 -7 -15 -15 -15 -8 0 -15 7 -15 15 0 8 7 15 15 15 8 0 15
7 15 15 0 8 -7 15 -15 15 -10 0 -15 10 -15 30 0 20 5 30 15 30 8 0 15 7 15 15
0 8 -7 15 -15 15 -8 0 -15 -7 -15 -15 0 -8 -7 -15 -15 -15 -10 0 -15 10 -15
30 0 20 -5 30 -15 30 -8 0 -15 7 -15 15 0 8 7 15 15 15 8 0 15 7 15 15 0 10
10 15 30 15 20 0 30 -5 30 -15 0 -8 7 -15 15 -15 8 0 15 -7 15 -15 0 -8 7 -15
15 -15 8 0 15 7 15 15 0 8 -7 15 -15 15 -8 0 -15 7 -15 15 0 8 7 15 15 15 8 0
15 7 15 15 0 10 -10 15 -30 15 -20 0 -30 5 -30 15 0 12 15 15 75 15 60 0 75
-3 75 -15z m570 0 c0 -8 7 -15 15 -15 8 0 15 -7 15 -15 0 -8 -7 -15 -15 -15
-8 0 -15 7 -15 15 0 10 -10 15 -30 15 -20 0 -30 5 -30 15 0 10 10 15 30 15 20
0 30 -5 30 -15z m90 -60 c0 -33 -4 -45 -15 -45 -8 0 -15 -7 -15 -15 0 -8 -7
-15 -15 -15 -8 0 -15 7 -15 15 0 8 7 15 15 15 11 0 15 12 15 45 0 33 4 45 15
45 11 0 15 -12 15 -45z m-120 0 c0 -8 -7 -15 -15 -15 -8 0 -15 7 -15 15 0 8 7
15 15 15 8 0 15 -7 15 -15z m450 -30 c0 -33 -4 -45 -15 -45 -8 0 -15 7 -15 15
0 10 -10 15 -30 15 -20 0 -30 5 -30 15 0 10 10 15 30 15 20 0 30 5 30 15 0 8
7 15 15 15 11 0 15 -12 15 -45z m-960 -60 c0 -8 -7 -15 -15 -15 -8 0 -15 -7
-15 -15 0 -10 -10 -15 -30 -15 -20 0 -30 5 -30 15 0 8 7 15 15 15 8 0 15 7 15
15 0 10 10 15 30 15 20 0 30 -5 30 -15z m270 0 c0 -8 -7 -15 -15 -15 -8 0 -15
7 -15 15 0 8 7 15 15 15 8 0 15 -7 15 -15z m810 -150 c0 -8 7 -15 15 -15 8 0
15 -7 15 -15 0 -8 7 -15 15 -15 8 0 15 -7 15 -15 0 -8 -7 -15 -15 -15 -10 0
-15 -10 -15 -30 0 -27 -3 -30 -30 -30 -20 0 -30 5 -30 15 0 10 -10 15 -30 15
-20 0 -30 -5 -30 -15 0 -8 -7 -15 -15 -15 -8 0 -15 -7 -15 -15 0 -8 -7 -15
-15 -15 -11 0 -15 12 -15 45 0 33 4 45 15 45 10 0 15 10 15 30 0 27 3 30 30
30 27 0 30 -3 30 -30 0 -20 5 -30 15 -30 8 0 15 -7 15 -15 0 -8 7 -15 15 -15
8 0 15 7 15 15 0 8 7 15 15 15 8 0 15 7 15 15 0 8 -7 15 -15 15 -8 0 -15 -7
-15 -15 0 -8 -7 -15 -15 -15 -11 0 -15 12 -15 45 0 33 4 45 15 45 8 0 15 -7
15 -15z m-270 -30 c0 -8 -7 -15 -15 -15 -8 0 -15 7 -15 15 0 8 7 15 15 15 8 0
15 -7 15 -15z m90 0 c0 -8 7 -15 15 -15 8 0 15 -7 15 -15 0 -8 -7 -15 -15 -15
-11 0 -15 -12 -15 -45 0 -43 -1 -45 -30 -45 -20 0 -30 5 -30 15 0 8 -7 15 -15
15 -8 0 -15 7 -15 15 0 8 -7 15 -15 15 -8 0 -15 7 -15 15 0 10 10 15 30 15 20
0 30 -5 30 -15 0 -8 7 -15 15 -15 8 0 15 7 15 15 0 8 -7 15 -15 15 -8 0 -15 7
-15 15 0 8 7 15 15 15 8 0 15 7 15 15 0 8 7 15 15 15 8 0 15 -7 15 -15z m-210
-90 c0 -33 -4 -45 -15 -45 -8 0 -15 -7 -15 -15 0 -8 -7 -15 -15 -15 -8 0 -15
7 -15 15 0 8 -7 15 -15 15 -11 0 -15 -12 -15 -45 0 -43 -1 -45 -30 -45 -20 0
-30 5 -30 15 0 10 -10 15 -30 15 -20 0 -30 5 -30 15 0 8 -7 15 -15 15 -10 0
-15 -10 -15 -30 0 -20 -5 -30 -15 -30 -8 0 -15 -7 -15 -15 0 -8 -7 -15 -15
-15 -10 0 -15 10 -15 30 0 20 5 30 15 30 8 0 15 7 15 15 0 8 7 15 15 15 8 0
15 7 15 15 0 8 7 15 15 15 8 0 15 -7 15 -15 0 -10 10 -15 30 -15 20 0 30 -5
30 -15 0 -8 7 -15 15 -15 11 0 15 12 15 45 0 43 1 45 30 45 20 0 30 5 30 15 0
8 7 15 15 15 8 0 15 7 15 15 0 8 7 15 15 15 11 0 15 -12 15 -45z m60 15 c0
-20 -5 -30 -15 -30 -10 0 -15 10 -15 30 0 20 5 30 15 30 10 0 15 -10 15 -30z
m510 -60 c0 -20 -5 -30 -15 -30 -10 0 -15 10 -15 30 0 20 5 30 15 30 10 0 15
-10 15 -30z m-60 -15 c0 -8 -7 -15 -15 -15 -8 0 -15 7 -15 15 0 8 7 15 15 15
8 0 15 -7 15 -15z m180 0 c0 -8 7 -15 15 -15 8 0 15 -7 15 -15 0 -10 -10 -15
-30 -15 -27 0 -30 3 -30 30 0 20 5 30 15 30 8 0 15 -7 15 -15z m-1590 -60 c0
-8 -7 -15 -15 -15 -8 0 -15 7 -15 15 0 8 7 15 15 15 8 0 15 -7 15 -15z m1470
0 c0 -11 -12 -15 -45 -15 -33 0 -45 4 -45 15 0 11 12 15 45 15 33 0 45 -4 45
-15z m-240 -30 c0 -10 -10 -15 -30 -15 -20 0 -30 5 -30 15 0 10 10 15 30 15
20 0 30 -5 30 -15z m-390 -60 l0 -45 -45 0 -45 0 0 45 0 45 45 0 45 0 0 -45z
m720 0 l0 -45 -45 0 -45 0 0 45 0 45 45 0 45 0 0 -45z m-360 0 c0 -10 -10 -15
-30 -15 -20 0 -30 -5 -30 -15 0 -8 -7 -15 -15 -15 -8 0 -15 7 -15 15 0 8 7 15
15 15 8 0 15 7 15 15 0 10 10 15 30 15 20 0 30 -5 30 -15z m-480 -60 c0 -33 4
-45 15 -45 8 0 15 -7 15 -15 0 -10 -10 -15 -30 -15 -20 0 -30 5 -30 15 0 8 -7
15 -15 15 -8 0 -15 -7 -15 -15 0 -8 -7 -15 -15 -15 -10 0 -15 10 -15 30 0 27
3 30 30 30 27 0 30 3 30 30 0 20 5 30 15 30 11 0 15 -12 15 -45z m360 -60 c0
-8 -7 -15 -15 -15 -8 0 -15 -7 -15 -15 0 -8 -7 -15 -15 -15 -8 0 -15 7 -15 15
0 8 7 15 15 15 8 0 15 7 15 15 0 8 7 15 15 15 8 0 15 -7 15 -15z"/>
<path d="M1230 1975 c0 -8 7 -15 15 -15 8 0 15 7 15 15 0 8 -7 15 -15 15 -8 0
-15 -7 -15 -15z"/>
<path d="M1830 1915 c0 -8 7 -15 15 -15 8 0 15 7 15 15 0 8 -7 15 -15 15 -8 0
-15 -7 -15 -15z"/>
<path d="M540 1765 c0 -8 -7 -15 -15 -15 -8 0 -15 -7 -15 -15 0 -10 10 -15 30
-15 27 0 30 3 30 30 0 20 -5 30 -15 30 -8 0 -15 -7 -15 -15z"/>
<path d="M510 1255 c0 -8 7 -15 15 -15 8 0 15 7 15 15 0 8 -7 15 -15 15 -8 0
-15 -7 -15 -15z"/>
<path d="M1950 1255 c0 -8 7 -15 15 -15 8 0 15 7 15 15 0 8 -7 15 -15 15 -8 0
-15 -7 -15 -15z"/>
<path d="M420 1075 c0 -8 7 -15 15 -15 8 0 15 7 15 15 0 8 -7 15 -15 15 -8 0
-15 -7 -15 -15z"/>
<path d="M1290 715 c0 -8 7 -15 15 -15 8 0 15 7 15 15 0 8 -7 15 -15 15 -8 0
-15 -7 -15 -15z"/>
<path d="M1230 535 c0 -8 7 -15 15 -15 8 0 15 7 15 15 0 8 -7 15 -15 15 -8 0
-15 -7 -15 -15z"/>
<path d="M1950 535 c0 -8 7 -15 15 -15 8 0 15 7 15 15 0 8 -7 15 -15 15 -8 0
-15 -7 -15 -15z"/>
<path d="M1170 2155 c0 -8 7 -15 15 -15 8 0 15 7 15 15 0 8 -7 15 -15 15 -8 0
-15 -7 -15 -15z"/>
<path d="M1950 2065 l0 -105 105 0 105 0 0 105 0 105 -105 0 -105 0 0 -105z
m180 0 l0 -75 -75 0 -75 0 0 75 0 75 75 0 75 0 0 -75z"/>
<path d="M2010 2065 l0 -45 45 0 45 0 0 45 0 45 -45 0 -45 0 0 -45z"/>
<path d="M930 1975 c0 -8 7 -15 15 -15 8 0 15 7 15 15 0 8 -7 15 -15 15 -8 0
-15 -7 -15 -15z"/>
<path d="M1650 1975 c0 -8 7 -15 15 -15 8 0 15 7 15 15 0 8 -7 15 -15 15 -8 0
-15 -7 -15 -15z"/>
<path d="M1590 1705 c0 -8 7 -15 15 -15 8 0 15 7 15 15 0 8 -7 15 -15 15 -8 0
-15 -7 -15 -15z"/>
<path d="M1380 1645 c0 -33 4 -45 15 -45 8 0 15 7 15 15 0 10 10 15 30 15 20
0 30 5 30 15 0 8 -7 15 -15 15 -8 0 -15 7 -15 15 0 10 -10 15 -30 15 -29 0
-30 -2 -30 -45z"/>
<path d="M1410 1585 c0 -8 -7 -15 -15 -15 -8 0 -15 -7 -15 -15 0 -8 7 -15 15
-15 8 0 15 -7 15 -15 0 -8 -7 -15 -15 -15 -8 0 -15 -7 -15 -15 0 -8 -7 -15
-15 -15 -8 0 -15 7 -15 15 0 10 -10 15 -30 15 -20 0 -30 -5 -30 -15 0 -8 -7
-15 -15 -15 -8 0 -15 -7 -15 -15 0 -12 13 -15 60 -15 47 0 60 3 60 15 0 8 7
15 15 15 8 0 15 -7 15 -15 0 -10 10 -15 30 -15 20 0 30 5 30 15 0 8 7 15 15
15 8 0 15 7 15 15 0 10 -10 15 -30 15 -20 0 -30 -5 -30 -15 0 -8 -7 -15 -15
-15 -8 0 -15 7 -15 15 0 8 7 15 15 15 10 0 15 10 15 30 0 20 5 30 15 30 8 0
15 7 15 15 0 10 -10 15 -30 15 -20 0 -30 -5 -30 -15z"/>
<path d="M910 1325 l0 -55 35 0 c23 0 38 6 42 15 6 18 -23 55 -44 55 -7 0 -13
5 -13 10 0 14 28 12 33 -2 2 -7 8 -10 12 -6 16 15 -5 38 -35 38 -30 0 -30 0
-30 -55z m58 -22 c2 -8 -5 -13 -17 -13 -12 0 -21 6 -21 16 0 18 31 15 38 -3z"/>
<path d="M1220 1362 c0 -13 -7 -18 -21 -18 -12 1 -26 -7 -33 -16 -16 -26 4
-53 43 -55 l31 -1 0 54 c0 30 -4 54 -10 54 -5 0 -10 -8 -10 -18z m-4 -43 c10
-17 -13 -36 -27 -22 -12 12 -4 33 11 33 5 0 12 -5 16 -11z"/>
<path d="M1000 1308 c0 -21 5 -38 10 -38 6 0 10 12 10 26 0 17 6 28 20 31 30
8 24 22 -10 21 -28 -1 -30 -4 -30 -40z"/>
<path d="M1087 1343 c-13 -13 -7 -21 13 -16 11 3 20 1 20 -5 0 -6 -10 -12 -22
-14 -40 -5 -28 -33 14 -34 39 -1 41 3 22 64 -4 13 -36 17 -47 5z m30 -49 c-3
-3 -12 -4 -19 -1 -8 3 -5 6 6 6 11 1 17 -2 13 -5z"/>
<path d="M1272 1338 c-15 -15 -15 -41 0 -56 15 -15 58 -16 58 -2 0 6 -9 10
-19 10 -11 0 -23 5 -26 10 -4 6 5 10 20 10 20 0 26 4 23 18 -4 21 -39 27 -56
10z m35 -14 c-3 -3 -12 -4 -19 -1 -8 3 -5 6 6 6 11 1 17 -2 13 -5z"/>
<path d="M1357 1343 c-13 -13 -7 -30 16 -41 l22 -11 -22 0 c-13 -1 -23 -6 -23
-12 0 -17 54 -6 58 12 1 8 -7 21 -20 27 l-23 11 23 0 c12 1 22 6 22 11 0 11
-43 14 -53 3z"/>
<path d="M1442 1338 c-25 -25 -6 -68 30 -68 24 0 23 16 -2 23 -11 3 -20 10
-20 17 0 7 9 14 20 17 11 3 20 9 20 14 0 13 -34 11 -48 -3z"/>
<path d="M1520 1335 c-26 -32 13 -81 48 -59 34 22 22 74 -18 74 -10 0 -23 -7
-30 -15z m46 -16 c10 -17 -13 -36 -27 -22 -12 12 -4 33 11 33 5 0 12 -5 16
-11z"/>
<path d="M2040 1150 c0 -20 5 -30 15 -30 10 0 15 10 15 30 0 20 -5 30 -15 30
-10 0 -15 -10 -15 -30z"/>
<path d="M1080 985 c0 -8 -7 -15 -15 -15 -8 0 -15 -7 -15 -15 0 -10 10 -15 30
-15 27 0 30 3 30 30 0 20 -5 30 -15 30 -8 0 -15 -7 -15 -15z"/>
<path d="M2040 940 c0 -20 5 -30 15 -30 10 0 15 10 15 30 0 20 -5 30 -15 30
-10 0 -15 -10 -15 -30z"/>
<path d="M1950 910 c0 -20 5 -30 15 -30 8 0 15 7 15 15 0 8 7 15 15 15 8 0 15
7 15 15 0 10 -10 15 -30 15 -27 0 -30 -3 -30 -30z"/>
<path d="M2100 925 c0 -8 7 -15 15 -15 10 0 15 -10 15 -30 0 -20 5 -30 15 -30
10 0 15 10 15 30 0 20 -5 30 -15 30 -8 0 -15 7 -15 15 0 8 -7 15 -15 15 -8 0
-15 -7 -15 -15z"/>
<path d="M1860 835 c0 -8 7 -15 15 -15 8 0 15 7 15 15 0 8 -7 15 -15 15 -8 0
-15 -7 -15 -15z"/>
<path d="M330 790 c0 -27 3 -30 30 -30 20 0 30 -5 30 -15 0 -8 7 -15 15 -15 8
0 15 -7 15 -15 0 -8 7 -15 15 -15 8 0 15 7 15 15 0 8 -7 15 -15 15 -8 0 -15 7
-15 15 0 8 7 15 15 15 10 0 15 10 15 30 0 27 -3 30 -30 30 -20 0 -30 -5 -30
-15 0 -8 7 -15 15 -15 8 0 15 -7 15 -15 0 -8 -7 -15 -15 -15 -8 0 -15 7 -15
15 0 8 -7 15 -15 15 -8 0 -15 7 -15 15 0 8 -7 15 -15 15 -10 0 -15 -10 -15
-30z"/>
<path d="M330 700 c0 -20 5 -30 15 -30 10 0 15 10 15 30 0 20 -5 30 -15 30
-10 0 -15 -10 -15 -30z"/>
<path d="M720 685 c0 -8 7 -15 15 -15 8 0 15 7 15 15 0 8 -7 15 -15 15 -8 0
-15 -7 -15 -15z"/>
<path d="M660 640 c0 -27 -3 -30 -30 -30 -20 0 -30 -5 -30 -15 0 -8 -7 -15
-15 -15 -12 0 -15 -18 -15 -105 0 -87 3 -105 15 -105 12 0 15 18 15 105 0 87
3 105 15 105 10 0 15 -10 15 -30 0 -20 5 -30 15 -30 8 0 15 -7 15 -15 0 -8 7
-15 15 -15 10 0 15 -10 15 -30 0 -20 -5 -30 -15 -30 -8 0 -15 7 -15 15 0 8 -7
15 -15 15 -8 0 -15 -7 -15 -15 0 -8 7 -15 15 -15 8 0 15 -7 15 -15 0 -8 7 -15
15 -15 8 0 15 -7 15 -15 0 -8 -7 -15 -15 -15 -8 0 -15 -7 -15 -15 0 -8 7 -15
15 -15 8 0 15 7 15 15 0 8 7 15 15 15 8 0 15 7 15 15 0 10 10 15 30 15 20 0
30 5 30 15 0 8 -7 15 -15 15 -10 0 -15 10 -15 30 0 20 -5 30 -15 30 -8 0 -15
7 -15 15 0 8 -7 15 -15 15 -12 0 -15 15 -15 75 0 60 -3 75 -15 75 -10 0 -15
-10 -15 -30z"/>
<path d="M2130 655 c0 -8 -7 -15 -15 -15 -8 0 -15 -7 -15 -15 0 -8 -7 -15 -15
-15 -8 0 -15 -7 -15 -15 0 -8 7 -15 15 -15 8 0 15 7 15 15 0 10 10 15 30 15
27 0 30 3 30 30 0 20 -5 30 -15 30 -8 0 -15 -7 -15 -15z"/>
<path d="M510 595 c0 -8 7 -15 15 -15 8 0 15 7 15 15 0 8 -7 15 -15 15 -8 0
-15 -7 -15 -15z"/>
<path d="M930 580 c0 -27 -3 -30 -30 -30 -20 0 -30 -5 -30 -15 0 -8 -7 -15
-15 -15 -8 0 -15 -7 -15 -15 0 -10 -10 -15 -30 -15 -27 0 -30 -3 -30 -30 0
-20 5 -30 15 -30 8 0 15 -7 15 -15 0 -8 -7 -15 -15 -15 -8 0 -15 -7 -15 -15 0
-8 -7 -15 -15 -15 -8 0 -15 -7 -15 -15 0 -10 10 -15 30 -15 27 0 30 3 30 30 0
29 2 30 45 30 33 0 45 4 45 15 0 10 -10 15 -30 15 -27 0 -30 3 -30 30 0 29 2
30 45 30 33 0 45 4 45 15 0 8 7 15 15 15 11 0 15 12 15 45 0 33 -4 45 -15 45
-10 0 -15 -10 -15 -30z"/>
<path d="M330 445 l0 -105 105 0 105 0 0 105 0 105 -105 0 -105 0 0 -105z
m180 0 l0 -75 -75 0 -75 0 0 75 0 75 75 0 75 0 0 -75z"/>
<path d="M390 445 l0 -45 45 0 45 0 0 45 0 45 -45 0 -45 0 0 -45z"/>
<path d="M2130 535 c0 -8 7 -15 15 -15 8 0 15 7 15 15 0 8 -7 15 -15 15 -8 0
-15 -7 -15 -15z"/>
<path d="M2070 475 c0 -10 10 -15 30 -15 29 0 30 -2 30 -45 0 -33 -4 -45 -15
-45 -8 0 -15 -7 -15 -15 0 -10 10 -15 30 -15 l30 0 0 75 0 75 -45 0 c-33 0
-45 -4 -45 -15z"/>
<path d="M1620 385 c0 -8 7 -15 15 -15 8 0 15 7 15 15 0 8 -7 15 -15 15 -8 0
-15 -7 -15 -15z"/>
<path d="M1860 355 c0 -8 7 -15 15 -15 8 0 15 7 15 15 0 8 -7 15 -15 15 -8 0
-15 -7 -15 -15z"/>
<path d="M2040 355 c0 -8 7 -15 15 -15 8 0 15 7 15 15 0 8 -7 15 -15 15 -8 0
-15 -7 -15 -15z"/>
</g>
</svg>
